<svg width="72" height="72" viewBox="0 0 72 72" fill="none" xmlns="http://www.w3.org/2000/svg">
<path d="M65.5646 0V59.095L12.8873 64.8435L6.43488 65.5476V6.45244C6.43488 4.67058 7.15628 3.05677 8.32403 1.88902C9.49178 0.721266 11.1055 0 12.8873 0H65.5646Z" fill="#DA4A54"/>
<path d="M12.8873 0V64.8435L6.43488 65.5476V6.45244C6.43488 4.67058 7.15628 3.05677 8.32403 1.88902C9.49178 0.721266 11.1055 0 12.8873 0Z" fill="#C32430"/>
<path d="M65.5651 59.0956H12.8872C9.32372 59.0956 6.435 61.9843 6.435 65.5477C6.435 69.1112 9.32372 71.9999 12.8872 71.9999H65.5651V68.3781L62.9399 65.5476L65.5651 62.7171V59.0956Z" fill="#C32430"/>
<path d="M12.8872 68.3782C11.3264 68.3782 10.0567 67.1085 10.0567 65.5477C10.0567 63.9869 11.3264 62.7172 12.8872 62.7172H65.5652V68.3782H12.8872Z" fill="#DFEAEF"/>
<path d="M29.6689 13.9895L24.9784 9.17536L20.2878 13.9895V0H29.6689V13.9895Z" fill="#F4DD45"/>
<path d="M50.1212 18.0341H25.1076C22.5997 18.0341 20.5667 20.0671 20.5667 22.575V36.4309C20.5667 38.9388 22.5997 40.9718 25.1076 40.9718H50.1212C52.6291 40.9718 54.6621 38.9388 54.6621 36.4309V22.575C54.6621 20.0671 52.6291 18.0341 50.1212 18.0341Z" fill="#DFEAEF"/>
<path d="M50.1212 42.0584H25.1076C22.0046 42.0584 19.4801 39.5339 19.4801 36.4308V22.5749C19.4801 19.472 22.0046 16.9475 25.1076 16.9475H50.1212C53.2242 16.9475 55.7487 19.472 55.7487 22.5749V36.4308C55.7487 39.5339 53.2242 42.0584 50.1212 42.0584ZM25.1076 19.1206C23.2029 19.1206 21.6532 20.6703 21.6532 22.5749V36.4308C21.6532 38.3356 23.2029 39.8853 25.1076 39.8853H50.1212C52.0259 39.8853 53.5756 38.3356 53.5756 36.4308V22.5749C53.5756 20.6701 52.0259 19.1206 50.1212 19.1206H25.1076Z" fill="#C32430"/>
<path d="M47.8197 27.7111H27.4091C27.121 27.7111 26.8446 27.5967 26.6409 27.3929C26.4371 27.1892 26.3226 26.9128 26.3226 26.6247C26.3226 26.3365 26.4371 26.0602 26.6409 25.8564C26.8446 25.6527 27.121 25.5382 27.4091 25.5382H47.8196C48.1077 25.5382 48.384 25.6527 48.5878 25.8564C48.7916 26.0602 48.906 26.3365 48.906 26.6247C48.9061 26.7674 48.878 26.9086 48.8234 27.0405C48.7688 27.1723 48.6888 27.2921 48.5879 27.393C48.4871 27.4939 48.3673 27.5739 48.2355 27.6285C48.1037 27.6831 47.9624 27.7112 47.8197 27.7111ZM47.8197 33.4678H27.4091C27.121 33.4678 26.8446 33.3533 26.6409 33.1496C26.4371 32.9458 26.3226 32.6695 26.3226 32.3813C26.3226 32.0932 26.4371 31.8168 26.6409 31.6131C26.8446 31.4093 27.121 31.2948 27.4091 31.2948H47.8196C48.1077 31.2948 48.3841 31.4093 48.5878 31.613C48.7916 31.8167 48.9061 32.0931 48.9061 32.3812C48.9061 32.6694 48.7917 32.9457 48.5879 33.1495C48.3842 33.3533 48.1078 33.4678 47.8197 33.4678Z" fill="#665E66"/>
</svg>
