<svg width="72" height="72" viewBox="0 0 72 72" fill="none" xmlns="http://www.w3.org/2000/svg">
<g clip-path="url(#clip0_179_1145)">
<path d="M68.6909 36.0024L71.8497 27.7635C72.1962 26.8545 71.9262 25.8241 71.1658 25.2076L64.3172 19.655L62.9313 10.9391C62.7783 9.97618 62.0224 9.22473 61.0594 9.07174L52.3435 7.68584L46.7954 0.832806C46.1835 0.0723583 45.1305 -0.197623 44.2441 0.148853L36.0007 3.31214L27.7617 0.153353C26.8483 -0.197623 25.8269 0.0813577 25.2104 0.837306L19.6578 7.69034L10.9419 9.07624C10.4738 9.15162 10.0414 9.37265 9.70615 9.70789C9.3709 10.0431 9.14988 10.4755 9.0745 10.9436L7.6886 19.6595L0.835563 25.2121C0.079615 25.8241 -0.194866 26.8545 0.15161 27.7635L3.31039 36.0024L0.15161 44.2413C-0.199366 45.1503 0.079615 46.1807 0.835563 46.7927L7.6886 52.3408L9.0745 61.0567C9.22749 62.0196 9.97894 62.7756 10.9419 62.9286L19.6578 64.3145L25.2104 71.163C25.5085 71.5337 25.9169 71.7999 26.3765 71.9229C26.836 72.0458 27.3228 72.0192 27.7662 71.847L36.0007 68.6927L44.2396 71.8515C44.4968 71.9496 44.7698 71.9999 45.045 71.9999C45.7065 71.9999 46.359 71.7075 46.7954 71.163L52.3435 64.3145L61.0594 62.9286C61.529 62.8539 61.9629 62.6326 62.2991 62.2964C62.6353 61.9602 62.8566 61.5262 62.9313 61.0567L64.3172 52.3408L71.1658 46.7927C71.9262 46.1762 72.1962 45.1503 71.8497 44.2413L68.6909 36.0024Z" fill="#F44336"/>
<path d="M29.2511 31.5027C25.5299 31.5027 22.5016 28.4744 22.5016 24.7531C22.5016 21.0319 25.5299 18.0036 29.2511 18.0036C32.9724 18.0036 36.0007 21.0319 36.0007 24.7531C36.0007 28.4744 32.9724 31.5027 29.2511 31.5027ZM29.2511 22.5033C28.0092 22.5033 27.0013 23.5112 27.0013 24.7531C27.0013 25.995 28.0092 27.003 29.2511 27.003C30.493 27.003 31.501 25.995 31.501 24.7531C31.501 23.5112 30.493 22.5033 29.2511 22.5033ZM42.7502 54.0011C39.029 54.0011 36.0007 50.9728 36.0007 47.2516C36.0007 43.5303 39.029 40.5021 42.7502 40.5021C46.4714 40.5021 49.4997 43.5303 49.4997 47.2516C49.4997 50.9728 46.4714 54.0011 42.7502 54.0011ZM42.7502 45.0017C41.5128 45.0017 40.5004 46.0142 40.5004 47.2516C40.5004 48.489 41.5128 49.5014 42.7502 49.5014C43.9876 49.5014 45 48.489 45 47.2516C45 46.0142 43.9876 45.0017 42.7502 45.0017ZM24.7514 54.0011C24.297 54.0011 23.8425 53.8661 23.4465 53.5827C22.4341 52.8582 22.2001 51.4543 22.9246 50.4419L45.423 18.944C46.1475 17.9316 47.5514 17.6976 48.5638 18.4221C49.5762 19.142 49.8057 20.5504 49.0858 21.5583L26.5873 53.0562C26.1418 53.6726 25.4534 54.0011 24.7514 54.0011Z" fill="#FAFAFA"/>
</g>
<defs>
<clipPath id="clip0_179_1145">
<rect width="72" height="72" fill="white"/>
</clipPath>
</defs>
</svg>
