<svg width="103" height="48" viewBox="0 0 103 48" fill="none" xmlns="http://www.w3.org/2000/svg">
<path d="M25.9609 40.6215H25.0783V42.8646C25.0783 43.0623 25.0722 43.2562 25.06 43.4466C25.049 43.6356 25.0098 43.8038 24.9426 43.9512C24.8765 44.0985 24.7719 44.2176 24.6288 44.3084C24.4869 44.3981 24.2826 44.4429 24.016 44.4429C23.7579 44.4429 23.5591 44.3981 23.4197 44.3084C23.279 44.2176 23.1762 44.0985 23.1114 43.9512C23.0478 43.8038 23.0099 43.6356 22.9976 43.4466C22.9866 43.2562 22.9811 43.0623 22.9811 42.8646V36.3286C22.9811 36.1297 22.9866 35.9357 22.9976 35.7466C23.0099 35.5575 23.0478 35.3887 23.1114 35.2401C23.1762 35.0928 23.279 34.9743 23.4197 34.8847C23.5591 34.7938 23.7579 34.7484 24.016 34.7484H26.2912C26.8624 34.7767 27.3731 34.897 27.8232 35.1094C28.0165 35.2015 28.2043 35.3169 28.3865 35.4556C28.5676 35.5943 28.7309 35.7638 28.8764 35.9639C29.0208 36.1653 29.1363 36.4028 29.2232 36.6766C29.3113 36.9516 29.3553 37.269 29.3553 37.6288C29.3553 38.1236 29.2782 38.5563 29.1241 38.9271C28.97 39.2991 28.7468 39.611 28.4544 39.8627C28.1621 40.1144 27.8055 40.3035 27.3847 40.4299C26.9639 40.5576 26.4893 40.6215 25.9609 40.6215ZM25.0783 38.9732H26.0159C26.2459 38.9584 26.4526 38.9032 26.6361 38.8074C26.7144 38.7657 26.7908 38.7123 26.8655 38.6472C26.9388 38.5821 27.0055 38.5023 27.0654 38.4078C27.1242 38.3132 27.1713 38.2015 27.2067 38.0726C27.241 37.9437 27.2581 37.7957 27.2581 37.6288C27.2581 37.4728 27.241 37.3359 27.2067 37.2181C27.1713 37.1002 27.126 36.9983 27.071 36.9124C27.0159 36.8276 26.9541 36.7552 26.8856 36.695C26.8159 36.6349 26.7444 36.5839 26.671 36.5422C26.496 36.455 26.3009 36.4022 26.0857 36.3838H25.0783V38.9732ZM34.7772 38.557C34.7772 38.9167 34.6885 39.18 34.5112 39.347C34.335 39.5128 34.0836 39.5957 33.757 39.5957C33.7106 39.5957 33.6445 39.5993 33.5589 39.6067C33.4745 39.6128 33.384 39.6313 33.2873 39.662C33.1907 39.6914 33.0928 39.735 32.9938 39.7927C32.8947 39.8504 32.8042 39.929 32.7222 40.0284C32.639 40.1279 32.5724 40.2537 32.5222 40.406C32.4708 40.5582 32.4451 40.7405 32.4451 40.9529V42.9327C32.4451 43.1218 32.4347 43.3066 32.414 43.4871C32.3932 43.6676 32.3461 43.8278 32.2727 43.9677C32.1993 44.1089 32.0935 44.2237 31.9552 44.3121C31.817 44.3993 31.6311 44.4429 31.3975 44.4429C31.1675 44.4429 30.9858 44.3993 30.8525 44.3121C30.7192 44.2237 30.6164 44.1089 30.5443 43.9677C30.4733 43.8278 30.4275 43.6676 30.4067 43.4871C30.3859 43.3066 30.3755 43.1218 30.3755 42.9327V39.056C30.3755 38.8621 30.3859 38.6736 30.4067 38.4907C30.4275 38.3089 30.4733 38.1463 30.5443 38.0026C30.6164 37.8602 30.7192 37.746 30.8525 37.6601C30.9858 37.5754 31.1675 37.533 31.3975 37.533C31.6311 37.533 31.8115 37.5846 31.9387 37.6877C32.0647 37.7921 32.1577 37.9259 32.2176 38.0892C32.2776 38.2537 32.3124 38.436 32.3222 38.6361C32.3308 38.8375 32.3351 39.0327 32.3351 39.2218H32.4451C32.51 38.964 32.595 38.7295 32.7002 38.5183C32.8066 38.3083 32.924 38.1309 33.0525 37.986C33.1809 37.8412 33.3191 37.7294 33.4671 37.6509C33.6139 37.5723 33.7607 37.533 33.9075 37.533C34.0873 37.533 34.2335 37.5526 34.346 37.5919C34.4586 37.6312 34.5472 37.692 34.6121 37.7743C34.6757 37.8577 34.7191 37.9639 34.7423 38.0929C34.7656 38.223 34.7772 38.3777 34.7772 38.557ZM35.4671 41.8388V40.1224C35.4671 39.6976 35.5246 39.3372 35.6396 39.0413C35.7546 38.7466 35.9026 38.4999 36.0836 38.301C36.2659 38.1021 36.4683 37.9474 36.6909 37.8369C36.9148 37.7264 37.1343 37.6435 37.3496 37.5882C37.5661 37.533 37.7674 37.498 37.9533 37.4833C38.1404 37.4698 38.2866 37.463 38.3918 37.463C38.4982 37.463 38.6432 37.4698 38.8267 37.4833C39.0101 37.498 39.2065 37.533 39.4156 37.5882C39.626 37.6435 39.8376 37.7264 40.0505 37.8369C40.2645 37.9474 40.4578 38.1021 40.6303 38.301C40.8028 38.4999 40.944 38.7466 41.0541 39.0413C41.1654 39.3372 41.2211 39.6976 41.2211 40.1224V41.8388C41.2211 42.2636 41.1654 42.6239 41.0541 42.9198C40.944 43.2145 40.8028 43.4613 40.6303 43.6602C40.4578 43.8591 40.2645 44.0138 40.0505 44.1243C39.8376 44.2348 39.626 44.3177 39.4156 44.3729C39.2065 44.4282 39.0101 44.4631 38.8267 44.4779C38.6432 44.4914 38.4982 44.4981 38.3918 44.4981C38.2866 44.4981 38.1404 44.4914 37.9533 44.4779C37.7674 44.4631 37.5661 44.4282 37.3496 44.3729C37.1343 44.3177 36.9148 44.2348 36.6909 44.1243C36.4683 44.0138 36.2659 43.8591 36.0836 43.6602C35.9026 43.4613 35.7546 43.2145 35.6396 42.9198C35.5246 42.6239 35.4671 42.2636 35.4671 41.8388ZM37.5918 39.8166V42.3231C37.5967 42.4582 37.6291 42.5761 37.6891 42.6767C37.7392 42.7688 37.8181 42.8511 37.9258 42.9235C38.0346 42.9947 38.19 43.0303 38.3918 43.0303C38.5851 43.0303 38.7337 42.9947 38.8377 42.9235C38.9404 42.8511 39.0175 42.7688 39.0689 42.6767C39.1239 42.5761 39.1557 42.4582 39.1643 42.3231V39.8166C39.1557 39.6791 39.1239 39.5527 39.0689 39.4373C39.0175 39.344 38.9404 39.2574 38.8377 39.1776C38.7337 39.0966 38.5851 39.056 38.3918 39.056C38.19 39.056 38.0346 39.0966 37.9258 39.1776C37.8181 39.2574 37.7392 39.344 37.6891 39.4373C37.6291 39.5527 37.5967 39.6791 37.5918 39.8166ZM43.1513 37.5183H43.5385V36.2991C43.5385 36.1063 43.5489 35.9173 43.5697 35.7319C43.5905 35.5477 43.6376 35.3826 43.711 35.2365C43.7843 35.0916 43.8901 34.9743 44.0284 34.8847C44.1666 34.7938 44.3525 34.7484 44.5862 34.7484C44.8161 34.7484 45.0002 34.7938 45.1384 34.8847C45.2767 34.9743 45.3812 35.0916 45.4522 35.2365C45.5244 35.3826 45.5702 35.5477 45.5898 35.7319C45.6106 35.9173 45.621 36.1063 45.621 36.2991V37.5183H46.188C46.3066 37.5183 46.4259 37.5244 46.5458 37.5367C46.6656 37.5477 46.7727 37.5809 46.8668 37.6361C46.961 37.6914 47.0369 37.7743 47.0944 37.8848C47.1519 37.9965 47.1806 38.1512 47.1806 38.3488C47.1806 38.5392 47.1519 38.6896 47.0944 38.8001C47.0369 38.9106 46.961 38.9934 46.8668 39.0487C46.7727 39.1039 46.6656 39.1395 46.5458 39.1555C46.4259 39.1727 46.3066 39.1813 46.188 39.1813H45.621V41.6031C45.621 41.6964 45.6247 41.7946 45.632 41.8977C45.6393 42.0021 45.6632 42.0978 45.7036 42.185C45.7452 42.2734 45.8075 42.3465 45.8907 42.4042C45.9739 42.4619 46.0913 42.4907 46.243 42.4907C46.4081 42.4907 46.5494 42.503 46.6668 42.5276C46.7843 42.5533 46.8809 42.5988 46.9568 42.6638C47.0326 42.7277 47.0889 42.8173 47.1256 42.9327C47.1622 43.0481 47.1806 43.1961 47.1806 43.3766C47.1806 43.5607 47.1384 43.7197 47.054 43.8536C46.9684 43.9874 46.854 44.0985 46.7109 44.1869C46.569 44.2741 46.4039 44.3385 46.2155 44.3803C46.0271 44.422 45.8289 44.4429 45.621 44.4429C45.2944 44.4429 45.0155 44.4085 44.7843 44.3398C44.5519 44.2698 44.3586 44.1715 44.2045 44.0451C44.0504 43.9174 43.9281 43.7652 43.8376 43.5884C43.7483 43.4103 43.6816 43.2102 43.6376 42.988C43.5947 42.767 43.5672 42.5282 43.555 42.2716C43.544 42.0162 43.5385 41.7473 43.5385 41.4649V39.1813H43.1513C43.0327 39.1813 42.9146 39.1727 42.7972 39.1555C42.6798 39.1395 42.5752 39.1039 42.4835 39.0487C42.3905 38.9934 42.3153 38.9106 42.2578 38.8001C42.2003 38.6896 42.1715 38.5392 42.1715 38.3488C42.1715 38.1512 42.2003 37.9965 42.2578 37.8848C42.3153 37.7743 42.3905 37.6914 42.4835 37.6361C42.5752 37.5809 42.6798 37.5477 42.7972 37.5367C42.9146 37.5244 43.0327 37.5183 43.1513 37.5183ZM54.2153 40.0671V40.4962C54.2153 40.5699 54.211 40.6564 54.2025 40.7559C54.1927 40.8553 54.1566 40.9499 54.0942 41.0395C54.0318 41.1291 53.934 41.2065 53.8006 41.2716C53.6673 41.3366 53.4789 41.3692 53.2355 41.3692H50.4906V42.034C50.4906 42.1445 50.5041 42.2599 50.531 42.3802C50.5591 42.4993 50.6062 42.6098 50.6723 42.7117C50.7395 42.8136 50.8282 42.8965 50.9383 42.9604C51.0484 43.0254 51.1842 43.058 51.3457 43.058C51.5291 43.058 51.6704 43.0359 51.7695 42.9917C51.8686 42.9487 51.9469 42.8947 52.0043 42.8296C52.0618 42.7645 52.1138 42.6952 52.1603 42.6215C52.2056 42.5478 52.2661 42.4785 52.3419 42.4134C52.4178 42.3495 52.5236 42.2955 52.6594 42.2513C52.7951 42.2071 52.9829 42.185 53.2227 42.185C53.3377 42.185 53.449 42.1942 53.5566 42.2126C53.6642 42.2311 53.7597 42.2661 53.8428 42.3176C53.926 42.368 53.9927 42.4379 54.0428 42.5276C54.093 42.6184 54.1181 42.7351 54.1181 42.8775C54.1181 43.1783 54.0239 43.4287 53.8355 43.6289C53.6471 43.8302 53.4104 43.9911 53.1254 44.1114C52.8404 44.2305 52.5309 44.3158 52.197 44.3674C51.8643 44.4177 51.553 44.4429 51.2631 44.4429C50.8814 44.438 50.5181 44.3895 50.1732 44.2974C49.8283 44.2053 49.5237 44.0574 49.2594 43.8536C48.994 43.651 48.7836 43.3858 48.6283 43.058C48.4717 42.7301 48.3934 42.3287 48.3934 41.8535V40.2329C48.3934 39.7946 48.4448 39.4231 48.5475 39.1187C48.6515 38.8142 48.7861 38.56 48.9512 38.3562C49.1176 38.1536 49.3041 37.9959 49.5108 37.8829C49.7175 37.7687 49.9267 37.684 50.1383 37.6288C50.3499 37.5735 50.5512 37.5391 50.742 37.5256C50.9328 37.5121 51.0973 37.5054 51.2355 37.5054C51.7004 37.5054 52.0967 37.5465 52.4245 37.6288C52.7536 37.7123 53.0288 37.8209 53.2502 37.9547C53.4704 38.0886 53.6447 38.2433 53.7731 38.4188C53.9028 38.5944 53.9994 38.7755 54.063 38.9621C54.1278 39.1487 54.1694 39.3378 54.1878 39.5294C54.2061 39.7209 54.2153 39.9001 54.2153 40.0671ZM50.4906 39.8443V40.3305H52.2154C52.2154 40.1132 52.2092 39.9204 52.197 39.7522C52.186 39.5828 52.1517 39.441 52.0942 39.3268C52.0368 39.2114 51.9469 39.1236 51.8245 39.0634C51.7034 39.0033 51.5297 38.9732 51.3034 38.9732C51.1151 38.9732 50.9671 39.0033 50.8594 39.0634C50.7518 39.1236 50.6698 39.1985 50.6135 39.2881C50.5585 39.3777 50.5243 39.4735 50.5108 39.5754C50.4973 39.6773 50.4906 39.7669 50.4906 39.8443ZM57.4739 39.9014V42.0469C57.4739 42.1206 57.4807 42.2139 57.4941 42.3268C57.5076 42.4398 57.54 42.5509 57.5914 42.6602C57.6415 42.7682 57.7161 42.8615 57.8152 42.9401C57.9143 43.0187 58.0489 43.058 58.2189 43.058C58.4207 43.058 58.5791 43.0346 58.6941 42.988C58.8091 42.9426 58.8941 42.8793 58.9491 42.7983C59.0042 42.7173 59.039 42.6227 59.0537 42.5147C59.0672 42.4066 59.0739 42.2924 59.0739 42.1721C59.0739 42.112 59.0843 42.0438 59.1051 41.9677C59.1259 41.8916 59.1754 41.8198 59.2537 41.7522C59.332 41.6859 59.4482 41.6307 59.6023 41.5865C59.7552 41.5423 59.9656 41.5202 60.2335 41.5202C60.4769 41.5202 60.6653 41.5478 60.7986 41.6031C60.932 41.6595 61.0298 41.7258 61.0922 41.802C61.1534 41.8781 61.1889 41.956 61.1986 42.0358C61.2072 42.1169 61.2115 42.1807 61.2115 42.2274C61.2115 42.522 61.1668 42.7817 61.0775 43.0064C60.9882 43.2299 60.8678 43.4238 60.7161 43.5884C60.5644 43.7517 60.3895 43.8885 60.1913 43.999C59.9932 44.1108 59.7828 44.1986 59.5601 44.2624C59.3375 44.3275 59.1112 44.3735 58.8813 44.4005C58.6513 44.4288 58.4305 44.4429 58.2189 44.4429C57.8556 44.4429 57.5033 44.3944 57.162 44.2974C56.822 44.2004 56.5198 44.0482 56.2556 43.8407C55.9914 43.6332 55.7786 43.3667 55.6171 43.0414C55.4569 42.716 55.3767 42.3244 55.3767 41.8664V40.2476C55.3767 39.8081 55.4281 39.436 55.5309 39.1316C55.6348 38.8271 55.7694 38.5735 55.9345 38.371C56.1009 38.1671 56.2874 38.0088 56.4941 37.8958C56.7009 37.7828 56.91 37.6987 57.1217 37.6435C57.3333 37.5882 57.5345 37.5533 57.7253 37.5385C57.9161 37.525 58.0807 37.5183 58.2189 37.5183C58.6274 37.5183 58.9846 37.5533 59.2904 37.6232C59.5962 37.692 59.8598 37.7841 60.0812 37.8995C60.3014 38.0149 60.4843 38.1475 60.6298 38.2973C60.7742 38.4471 60.8879 38.6055 60.9711 38.7724C61.0543 38.9382 61.113 39.1039 61.1473 39.2697C61.1815 39.4367 61.1986 39.5914 61.1986 39.7338C61.1986 39.8074 61.1937 39.894 61.184 39.9934C61.1754 40.0929 61.1399 40.1874 61.0775 40.2771C61.0151 40.3679 60.9173 40.4453 60.784 40.5091C60.6506 40.5742 60.4623 40.6067 60.2188 40.6067C60.132 40.6067 60.0225 40.603 59.8904 40.5957C59.7595 40.5895 59.6323 40.5656 59.5088 40.5238C59.384 40.4821 59.2782 40.4176 59.1913 40.3305C59.1033 40.2421 59.0592 40.1175 59.0592 39.9566C59.0592 39.8449 59.0537 39.7375 59.0427 39.6343C59.0317 39.53 58.9981 39.4385 58.9418 39.3599C58.8867 39.2813 58.803 39.2181 58.6904 39.1702C58.5779 39.1211 58.4207 39.0966 58.2189 39.0966C58.0489 39.0966 57.9143 39.1248 57.8152 39.1813C57.7161 39.2365 57.6415 39.3053 57.5914 39.3875C57.54 39.471 57.5076 39.5588 57.4941 39.6509C57.4807 39.743 57.4739 39.8265 57.4739 39.9014ZM63.0885 37.5183H63.4757V36.2991C63.4757 36.1063 63.486 35.9173 63.5068 35.7319C63.5264 35.5477 63.5735 35.3826 63.6481 35.2365C63.7215 35.0916 63.8273 34.9743 63.9655 34.8847C64.1025 34.7938 64.2885 34.7484 64.5233 34.7484C64.7533 34.7484 64.9374 34.7938 65.0756 34.8847C65.2138 34.9743 65.3184 35.0916 65.3894 35.2365C65.4603 35.3826 65.5062 35.5477 65.527 35.7319C65.5478 35.9173 65.5582 36.1063 65.5582 36.2991V37.5183H66.1233C66.2432 37.5183 66.3631 37.5244 66.4829 37.5367C66.6028 37.5477 66.7098 37.5809 66.804 37.6361C66.8982 37.6914 66.974 37.7743 67.0315 37.8848C67.089 37.9965 67.1178 38.1512 67.1178 38.3488C67.1178 38.5392 67.089 38.6896 67.0315 38.8001C66.974 38.9106 66.8982 38.9934 66.804 39.0487C66.7098 39.1039 66.6028 39.1395 66.4829 39.1555C66.3631 39.1727 66.2432 39.1813 66.1233 39.1813H65.5582V41.6031C65.5582 41.6964 65.5618 41.7946 65.5692 41.8977C65.5753 42.0021 65.5991 42.0978 65.6407 42.185C65.6823 42.2734 65.7447 42.3465 65.8279 42.4042C65.9098 42.4619 66.0267 42.4907 66.1783 42.4907C66.3447 42.4907 66.4866 42.503 66.604 42.5276C66.7214 42.5533 66.8181 42.5988 66.8939 42.6638C66.9698 42.7277 67.026 42.8173 67.0627 42.9327C67.0994 43.0481 67.1178 43.1961 67.1178 43.3766C67.1178 43.5607 67.0749 43.7197 66.9893 43.8536C66.9049 43.9874 66.7912 44.0985 66.648 44.1869C66.5062 44.2741 66.3404 44.3385 66.1508 44.3803C65.9624 44.422 65.7649 44.4429 65.5582 44.4429C65.2316 44.4429 64.9521 44.4085 64.7196 44.3398C64.4872 44.2698 64.294 44.1715 64.1399 44.0451C63.9857 43.9174 63.864 43.7652 63.7747 43.5884C63.6854 43.4103 63.6188 43.2102 63.5747 42.988C63.5307 42.767 63.5032 42.5282 63.4922 42.2716C63.4812 42.0162 63.4757 41.7473 63.4757 41.4649V39.1813H63.0885C62.9686 39.1813 62.85 39.1727 62.7325 39.1555C62.6163 39.1395 62.5118 39.1039 62.4188 39.0487C62.3271 38.9934 62.2524 38.9106 62.195 38.8001C62.1375 38.6896 62.1087 38.5392 62.1087 38.3488C62.1087 38.1512 62.1375 37.9965 62.195 37.8848C62.2524 37.7743 62.3271 37.6914 62.4188 37.6361C62.5118 37.5809 62.6163 37.5477 62.7325 37.5367C62.85 37.5244 62.9686 37.5183 63.0885 37.5183ZM68.7599 42.8922V39.0689C68.7599 38.8749 68.7703 38.6859 68.7911 38.5017C68.8107 38.3175 68.8578 38.1524 68.9324 38.0063C69.0058 37.8614 69.1116 37.7442 69.2498 37.6545C69.3868 37.5637 69.5728 37.5183 69.8076 37.5183C70.0425 37.5183 70.229 37.5637 70.3672 37.6545C70.5042 37.7442 70.61 37.8614 70.6847 38.0063C70.758 38.1524 70.8051 38.3175 70.8259 38.5017C70.8467 38.6859 70.8571 38.8749 70.8571 39.0689V42.8922C70.8571 43.0862 70.8467 43.2765 70.8259 43.4631C70.8051 43.6497 70.758 43.8161 70.6847 43.9622C70.61 44.1071 70.5042 44.2237 70.3672 44.3121C70.229 44.3993 70.0425 44.4429 69.8076 44.4429C69.5728 44.4429 69.3868 44.3993 69.2498 44.3121C69.1116 44.2237 69.0058 44.1071 68.9324 43.9622C68.8578 43.8161 68.8107 43.6497 68.7911 43.4631C68.7703 43.2765 68.7599 43.0862 68.7599 42.8922ZM70.87 35.8018C70.87 36.1567 70.7782 36.4206 70.5947 36.5938C70.41 36.7669 70.1526 36.8534 69.8223 36.8534C69.4908 36.8534 69.2333 36.7669 69.0498 36.5938C68.8651 36.4206 68.7728 36.1567 68.7728 35.8018C68.7728 35.4323 68.8651 35.1646 69.0498 34.9989C69.2333 34.8319 69.4908 34.7484 69.8223 34.7484C70.1758 34.7484 70.4388 34.8319 70.6113 34.9989C70.7838 35.1646 70.87 35.4323 70.87 35.8018ZM72.5525 41.8388V40.1224C72.5525 39.6976 72.61 39.3372 72.725 39.0413C72.84 38.7466 72.9886 38.4999 73.1708 38.301C73.3519 38.1021 73.5543 37.9474 73.7782 37.8369C74.0008 37.7264 74.2204 37.6435 74.4369 37.5882C74.6534 37.533 74.8546 37.498 75.0405 37.4833C75.2264 37.4698 75.3726 37.463 75.479 37.463C75.5842 37.463 75.7286 37.4698 75.9121 37.4833C76.0968 37.498 76.2937 37.533 76.5029 37.5882C76.7121 37.6435 76.9237 37.7264 77.1377 37.8369C77.3518 37.9474 77.5451 38.1021 77.7175 38.301C77.89 38.4999 78.0313 38.7466 78.1414 39.0413C78.2515 39.3372 78.3065 39.6976 78.3065 40.1224V41.8388C78.3065 42.2636 78.2515 42.6239 78.1414 42.9198C78.0313 43.2145 77.89 43.4613 77.7175 43.6602C77.5451 43.8591 77.3518 44.0138 77.1377 44.1243C76.9237 44.2348 76.7121 44.3177 76.5029 44.3729C76.2937 44.4282 76.0968 44.4631 75.9121 44.4779C75.7286 44.4914 75.5842 44.4981 75.479 44.4981C75.3726 44.4981 75.2264 44.4914 75.0405 44.4779C74.8546 44.4631 74.6534 44.4282 74.4369 44.3729C74.2204 44.3177 74.0008 44.2348 73.7782 44.1243C73.5543 44.0138 73.3519 43.8591 73.1708 43.6602C72.9886 43.4613 72.84 43.2145 72.725 42.9198C72.61 42.6239 72.5525 42.2636 72.5525 41.8388ZM74.6772 39.8166V42.3231C74.6821 42.4582 74.7145 42.5761 74.7745 42.6767C74.8246 42.7688 74.9041 42.8511 75.013 42.9235C75.1207 42.9947 75.276 43.0303 75.479 43.0303C75.6723 43.0303 75.8203 42.9947 75.9231 42.9235C76.0271 42.8511 76.1041 42.7688 76.1543 42.6767C76.2093 42.5761 76.2417 42.4582 76.2515 42.3231V39.8166C76.2417 39.6791 76.2093 39.5527 76.1543 39.4373C76.1041 39.344 76.0271 39.2574 75.9231 39.1776C75.8203 39.0966 75.6723 39.056 75.479 39.056C75.276 39.056 75.1207 39.0966 75.013 39.1776C74.9041 39.2574 74.8246 39.344 74.7745 39.4373C74.7145 39.5527 74.6821 39.6791 74.6772 39.8166ZM85.5063 39.9842V42.8646C85.5063 43.0623 85.4953 43.2562 85.4733 43.4466C85.4501 43.6356 85.4005 43.8038 85.3247 43.9512C85.2489 44.0985 85.1406 44.2176 84.9999 44.3084C84.8593 44.3981 84.6697 44.4429 84.4311 44.4429C84.1963 44.4429 84.0097 44.3981 83.8715 44.3084C83.7333 44.2176 83.6275 44.0985 83.5541 43.9512C83.4807 43.8038 83.4336 43.6356 83.4128 43.4466C83.392 43.2562 83.3816 43.0623 83.3816 42.8646V40.1629C83.3816 40.034 83.3761 39.9075 83.3651 39.7835C83.3541 39.6583 83.3278 39.5484 83.2862 39.4538C83.2446 39.3593 83.1835 39.2832 83.1027 39.2255C83.022 39.1678 82.9125 39.1389 82.7743 39.1389C82.5859 39.1389 82.4342 39.2015 82.3193 39.3268C82.2043 39.4508 82.1138 39.6214 82.0477 39.8388C81.9804 40.0548 81.9352 40.3096 81.9119 40.603C81.8899 40.8965 81.8789 41.2114 81.8789 41.5478V42.8646C81.8789 43.0623 81.8673 43.2562 81.8441 43.4466C81.8208 43.6356 81.7713 43.8038 81.6954 43.9512C81.6196 44.0985 81.5113 44.2176 81.3707 44.3084C81.2312 44.3981 81.0416 44.4429 80.8019 44.4429C80.567 44.4429 80.3811 44.3981 80.2441 44.3084C80.1059 44.2176 80 44.0985 79.9266 43.9512C79.8533 43.8038 79.8062 43.6356 79.7854 43.4466C79.7646 43.2562 79.7542 43.0623 79.7542 42.8646V39.0837C79.7542 38.8848 79.7609 38.692 79.7744 38.5054C79.7878 38.3188 79.8294 38.1524 79.8991 38.0063C79.9676 37.8614 80.0722 37.7442 80.2129 37.6545C80.3523 37.5637 80.5487 37.5183 80.8019 37.5183C81.0551 37.5183 81.2532 37.5612 81.3963 37.6472C81.5382 37.7319 81.6447 37.8344 81.7156 37.9547C81.7878 38.0751 81.833 38.2021 81.8514 38.336C81.8697 38.4698 81.8789 38.5852 81.8789 38.6822C81.9156 38.5484 81.9731 38.4121 82.0514 38.2733C82.1297 38.1346 82.2294 38.01 82.3505 37.8995C82.4728 37.789 82.619 37.6975 82.789 37.6251C82.959 37.5539 83.1566 37.5183 83.3816 37.5183C83.6348 37.5183 83.888 37.56 84.1413 37.6435C84.3945 37.727 84.622 37.8651 84.8238 38.0579C85.0269 38.2519 85.1914 38.506 85.3174 38.8203C85.4433 39.1346 85.5063 39.5226 85.5063 39.9842Z" fill="#007EFF"/>
<path d="M51.1038 0.0814012L41.8398 2.67261V3.2798C41.8398 3.93488 39.8813 5.11593 38.1221 5.75996L37.5394 5.9782V20.1151C37.5394 24.8052 39.8738 29.1956 44.2884 32.8047C46.3267 34.466 48.5874 35.8318 51.0042 36.8618L51.3987 37.0173L51.7935 36.8618C51.9299 36.8062 55.2012 35.5032 58.5057 32.8047C62.9239 29.1956 65.2621 24.8089 65.2621 20.1151V5.97451L64.6756 5.76733C62.9164 5.11943 60.9583 3.93856 60.9583 3.28349V2.67261L51.3989 0L51.1038 0.0814012ZM51.3989 1.74699L59.1804 3.92015C59.7521 5.4082 62.1307 6.55924 63.348 7.06643V20.1149C63.348 24.3831 61.2937 28.2329 57.2406 31.5571C55.453 33.0059 53.4902 34.2222 51.3989 35.1773C49.3075 34.2222 47.3448 33.0058 45.5572 31.5569C41.504 28.2328 39.4498 24.3831 39.4498 20.1149V7.06275C40.6668 6.55924 43.0455 5.40802 43.6172 3.91996L51.3989 1.74699Z" fill="#2ECC40"/>
<path d="M56.6758 3.50098H46.0779C44.544 3.50098 43.2889 4.76067 43.2889 6.30029V28.135C43.2889 29.6746 44.544 30.9343 46.0779 30.9343H56.6758C58.2097 30.9343 59.4647 29.6746 59.4647 28.135V6.30029C59.4647 4.76067 58.2097 3.50098 56.6758 3.50098ZM51.2932 29.4506C50.5402 29.4506 49.8987 28.8348 49.8987 28.051C49.8987 27.295 50.5123 26.6513 51.2932 26.6513C52.0741 26.6513 52.6876 27.267 52.6876 28.051C52.6876 28.835 52.0462 29.4506 51.2932 29.4506ZM57.2336 25.6156H45.5201V7.14009H57.2336V25.6156Z" fill="#007EFF"/>
<path fill-rule="evenodd" clip-rule="evenodd" d="M51.3751 24.1792C48.2527 24.1792 45.7238 21.6407 45.7238 18.5069C45.7238 15.3731 48.2527 12.8346 51.3751 12.8346C54.4974 12.8346 57.0263 15.3728 57.0263 18.5069C57.0263 21.641 54.4974 24.1792 51.3751 24.1792ZM51.3751 13.6854C48.719 13.6854 46.5715 15.8407 46.5715 18.5069C46.5715 21.1731 48.719 23.3283 51.3751 23.3283C54.0312 23.3283 56.1786 21.1727 56.1786 18.5069C56.1786 15.8411 54.0312 13.6854 51.3751 13.6854ZM50.923 20.3644C50.8835 20.4051 50.8363 20.4374 50.7841 20.4595C50.7319 20.4816 50.6759 20.493 50.6193 20.493C50.5627 20.493 50.5067 20.4816 50.4545 20.4595C50.4024 20.4374 50.3551 20.4051 50.3157 20.3644L48.8037 18.8045C48.7224 18.7212 48.6768 18.6092 48.6768 18.4925C48.6768 18.3759 48.7224 18.2639 48.8037 18.1806C48.8434 18.1401 48.8907 18.108 48.9429 18.0861C48.995 18.0642 49.051 18.0529 49.1075 18.0529C49.164 18.0529 49.22 18.0642 49.2722 18.0861C49.3243 18.108 49.3716 18.1401 49.4113 18.1806L50.6122 19.4285L53.3247 16.649C53.3644 16.6086 53.4117 16.5765 53.4639 16.5546C53.516 16.5327 53.572 16.5214 53.6285 16.5214C53.685 16.5214 53.741 16.5327 53.7931 16.5546C53.8453 16.5765 53.8926 16.6086 53.9323 16.649C54.0137 16.7323 54.0594 16.8443 54.0594 16.961C54.0594 17.0777 54.0137 17.1897 53.9323 17.273L50.923 20.3644Z" fill="#2ECC40"/>
<path d="M9.3337 20.1495H7.04018V25.9784C7.04018 26.4928 7.02489 26.9962 6.99431 27.4885C6.96495 27.9796 6.86342 28.4174 6.68972 28.8016C6.51725 29.1847 6.24569 29.4935 5.87506 29.728C5.50442 29.9613 4.97294 30.0779 4.2806 30.0779C3.6115 30.0779 3.0947 29.9613 2.73018 29.728C2.36566 29.4935 2.09961 29.1847 1.93203 28.8016C1.76567 28.4174 1.6672 27.9796 1.63662 27.4885C1.60727 26.9962 1.59259 26.4928 1.59259 25.9784V9.00017C1.59259 8.48451 1.60727 7.98051 1.63662 7.48817C1.6672 6.99706 1.76567 6.55998 1.93203 6.17691C2.09961 5.79262 2.36566 5.48384 2.73018 5.25056C3.0947 5.01606 3.6115 4.8988 4.2806 4.8988H10.1924C11.6737 4.97124 12.9997 5.2831 14.1703 5.83436C14.673 6.07378 15.1599 6.37336 15.6308 6.73309C16.103 7.09283 16.5274 7.5336 16.9042 8.0554C17.2797 8.5772 17.5812 9.19477 17.8087 9.90811C18.035 10.6214 18.1482 11.4459 18.1482 12.3814C18.1482 13.6645 17.9482 14.7885 17.5482 15.7535C17.1482 16.7185 16.569 17.5276 15.8106 18.1808C15.0522 18.834 14.1263 19.3257 13.0327 19.656C11.9404 19.985 10.7074 20.1495 9.3337 20.1495ZM7.04018 15.8695H9.47681C10.0737 15.8339 10.6114 15.6903 11.0896 15.4386C11.2927 15.3306 11.4896 15.1924 11.6804 15.0242C11.8713 14.8572 12.0443 14.6504 12.1997 14.4036C12.355 14.158 12.4774 13.8677 12.5667 13.5325C12.6572 13.1961 12.7024 12.8124 12.7024 12.3814C12.7024 11.9738 12.6572 11.6172 12.5667 11.3114C12.4774 11.0057 12.3612 10.7418 12.218 10.5195C12.0749 10.2973 11.9135 10.1082 11.7336 9.9523C11.5551 9.79638 11.3704 9.66439 11.1795 9.55635C10.7245 9.32921 10.2163 9.1917 9.6548 9.14382H7.04018V15.8695ZM35.5661 18.5326V26.0134C35.5661 26.5168 35.5392 27.0116 35.4854 27.4977C35.4316 27.9827 35.3117 28.4174 35.1258 28.8016C34.9411 29.1847 34.6695 29.4935 34.3111 29.728C33.9527 29.9613 33.4628 30.0779 32.8414 30.0779C32.22 30.0779 31.7277 29.9613 31.3644 29.728C30.9999 29.4935 30.7192 29.1847 30.5222 28.8016C30.3241 28.4174 30.1956 27.9827 30.1369 27.4977C30.077 27.0116 30.047 26.5168 30.047 26.0134V18.9267C30.047 18.6148 30.0348 18.3061 30.0103 18.0003C29.9871 17.6946 29.9216 17.4221 29.814 17.1826C29.7063 16.9432 29.5479 16.7486 29.3388 16.5988C29.1296 16.449 28.8397 16.3742 28.4691 16.3742C27.992 16.3742 27.6042 16.5325 27.3058 16.8493C27.0061 17.1673 26.77 17.605 26.5975 18.1624C26.4238 18.7198 26.3046 19.3797 26.2397 20.1422C26.1737 20.9034 26.1407 21.7217 26.1407 22.5971V26.0134C26.1407 26.5168 26.1138 27.0116 26.0599 27.4977C26.0061 27.9827 25.8838 28.4174 25.693 28.8016C25.5009 29.1847 25.2202 29.4935 24.8508 29.728C24.4802 29.9613 23.978 30.0779 23.3444 30.0779C22.7242 30.0779 22.2349 29.9613 21.8765 29.728C21.5181 29.4935 21.246 29.1847 21.06 28.8016C20.8753 28.4174 20.7561 27.9827 20.7023 27.4977C20.6484 27.0116 20.6215 26.5168 20.6215 26.0134V8.96334C20.6215 8.45995 20.6484 7.96577 20.7023 7.4808C20.7561 6.99461 20.8753 6.55998 21.06 6.17691C21.246 5.79262 21.5181 5.48384 21.8765 5.25056C22.2349 5.01606 22.7242 4.8988 23.3444 4.8988C23.978 4.8988 24.4802 5.01606 24.8508 5.25056C25.2202 5.48384 25.5009 5.79262 25.693 6.17691C25.8838 6.55998 26.0061 6.99461 26.0599 7.4808C26.1138 7.96577 26.1407 8.45995 26.1407 8.96334V15.1145C26.2483 14.767 26.4037 14.4134 26.6067 14.0537C26.8098 13.6939 27.0721 13.3704 27.3939 13.0831C27.7168 12.7946 28.0966 12.5576 28.5333 12.3722C28.9687 12.1856 29.4733 12.0923 30.047 12.0923C30.7039 12.0923 31.3638 12.2034 32.0268 12.4256C32.6898 12.6479 33.2812 13.0107 33.801 13.5141C34.3197 14.0175 34.7435 14.6798 35.0726 15.5012C35.4016 16.3226 35.5661 17.333 35.5661 18.5326Z" fill="#007EFF"/>
<path d="M82.0753 18.4958V25.9784C82.0753 26.4929 82.0453 26.9963 81.9853 27.4886C81.9254 27.9797 81.797 28.4174 81.6 28.8017C81.4031 29.1848 81.1224 29.4935 80.7578 29.7281C80.3933 29.9613 79.901 30.078 79.2808 30.078C78.6704 30.078 78.1866 29.9613 77.8295 29.7281C77.4711 29.4935 77.1958 29.1848 77.0038 28.8017C76.813 28.4174 76.6907 27.9797 76.6368 27.4886C76.583 26.9963 76.5561 26.4929 76.5561 25.9784V18.9636C76.5561 18.6272 76.5414 18.2975 76.5121 17.9746C76.4815 17.6505 76.4124 17.3656 76.3047 17.1201C76.1983 16.8745 76.0405 16.6769 75.8313 16.5271C75.6222 16.3773 75.3384 16.3024 74.98 16.3024C74.4895 16.3024 74.095 16.4638 73.7965 16.7867C73.4981 17.1109 73.2626 17.5547 73.0901 18.1183C72.9164 18.6818 72.7996 19.3442 72.7397 20.1054C72.6797 20.8666 72.6498 21.6849 72.6498 22.5603V25.9784C72.6498 26.4929 72.6198 26.9963 72.5599 27.4886C72.5012 27.9797 72.3727 28.4174 72.1745 28.8017C71.9776 29.1848 71.6969 29.4935 71.3324 29.7281C70.9691 29.9613 70.4767 30.078 69.8553 30.078C69.2462 30.078 68.7624 29.9613 68.404 29.7281C68.0456 29.4935 67.771 29.1848 67.5802 28.8017C67.3881 28.4174 67.2652 27.9797 67.2114 27.4886C67.1575 26.9963 67.1306 26.4929 67.1306 25.9784V16.1569C67.1306 15.6425 67.149 15.1421 67.1857 14.6559C67.2211 14.171 67.3288 13.7394 67.5086 13.3613C67.6872 12.9831 67.9587 12.6774 68.3232 12.4441C68.6878 12.2096 69.1985 12.0924 69.8553 12.0924C70.5122 12.0924 71.0259 12.2035 71.3966 12.4257C71.766 12.6479 72.0437 12.915 72.2296 13.2268C72.4143 13.5387 72.5305 13.8683 72.5782 14.2158C72.6259 14.5633 72.6498 14.8628 72.6498 15.1145C72.7452 14.7671 72.8944 14.4135 73.0975 14.0537C73.3005 13.694 73.5604 13.3705 73.8773 13.0832C74.1941 12.7946 74.5733 12.5577 75.0149 12.3723C75.4577 12.1857 75.9714 12.0924 76.5561 12.0924C77.213 12.0924 77.8698 12.2004 78.5267 12.4165C79.1836 12.6326 79.775 12.9923 80.301 13.4957C80.827 13.9991 81.2538 14.6584 81.5817 15.4736C81.9107 16.2889 82.0753 17.2963 82.0753 18.4958ZM100.926 18.7113V19.8273C100.926 20.0188 100.915 20.2435 100.891 20.5014C100.867 20.7592 100.775 21.0047 100.614 21.238C100.453 21.4725 100.198 21.6733 99.851 21.8402C99.5048 22.0084 99.0155 22.0926 98.3831 22.0926H91.2512V23.82C91.2512 24.1073 91.2873 24.4069 91.3594 24.7188C91.4304 25.0306 91.5527 25.3185 91.7264 25.5825C91.8989 25.8465 92.1288 26.0619 92.4163 26.2289C92.7025 26.3971 93.0548 26.4812 93.4732 26.4812C93.9514 26.4812 94.3184 26.4241 94.5741 26.3099C94.8309 26.1958 95.0346 26.0552 95.185 25.8882C95.3343 25.72 95.4682 25.5401 95.5869 25.3486C95.7068 25.1558 95.8652 24.976 96.0621 24.809C96.259 24.6408 96.5336 24.4996 96.8859 24.3854C97.2382 24.2712 97.725 24.2141 98.3464 24.2141C98.6449 24.2141 98.9348 24.2387 99.2161 24.2878C99.4963 24.3357 99.744 24.4253 99.9593 24.5567C100.175 24.6881 100.348 24.871 100.478 25.1055C100.611 25.3388 100.677 25.6414 100.677 26.0134C100.677 26.7931 100.431 27.4438 99.9409 27.9656C99.4516 28.4862 98.8363 28.9024 98.0951 29.2142C97.355 29.5261 96.552 29.7483 95.6859 29.8809C94.8199 30.0123 94.0108 30.078 93.2585 30.078C92.2665 30.0657 91.3228 29.9398 90.4274 29.7004C89.5307 29.461 88.7393 29.0773 88.0531 28.5494C87.3656 28.0215 86.8189 27.3321 86.4128 26.4812C86.0067 25.6304 85.8036 24.5874 85.8036 23.3522V19.1441C85.8036 18.0047 85.9382 17.039 86.2073 16.2471C86.4764 15.4565 86.8256 14.7971 87.2549 14.2692C87.6855 13.7413 88.1693 13.3306 88.7063 13.0371C89.2445 12.7437 89.7882 12.5252 90.3374 12.3815C90.8867 12.2379 91.409 12.1476 91.9044 12.1108C92.401 12.0752 92.8285 12.0574 93.1869 12.0574C94.393 12.0574 95.423 12.1654 96.2768 12.3815C97.1306 12.5964 97.8443 12.8781 98.418 13.2268C98.9917 13.5743 99.4455 13.9758 99.7794 14.4313C100.115 14.8868 100.366 15.3576 100.534 15.8438C100.7 16.3288 100.807 16.8199 100.855 17.3171C100.902 17.8156 100.926 18.2803 100.926 18.7113ZM91.2512 18.1367V19.3945H95.73C95.73 18.831 95.7153 18.3307 95.6859 17.8936C95.6566 17.4553 95.5667 17.0863 95.4162 16.7867C95.267 16.4872 95.0346 16.2594 94.719 16.1035C94.4022 15.9476 93.9508 15.8696 93.3649 15.8696C92.8756 15.8696 92.4903 15.9476 92.209 16.1035C91.9289 16.2594 91.7172 16.4546 91.5741 16.6891C91.431 16.9224 91.3411 17.171 91.3044 17.435C91.2689 17.699 91.2512 17.9329 91.2512 18.1367Z" fill="#007EFF"/>
</svg>
