<svg width="72" height="72" viewBox="0 0 72 72" fill="none" xmlns="http://www.w3.org/2000/svg">
<path d="M13.6703 0C9.9568 0 6.93562 3.02118 6.93562 6.73466V65.2653C6.93562 68.9787 9.9568 71.9999 13.6703 71.9999H33.0465V0H13.6703Z" fill="#EFEFEF"/>
<path d="M10.9475 65.2652V6.73466C10.9475 3.02118 13.9687 0 17.6822 0H13.6703C9.9568 0 6.93562 3.02118 6.93562 6.73466V65.2653C6.93562 68.9787 9.9568 71.9999 13.6703 71.9999H17.6822C13.9687 71.9999 10.9475 68.9787 10.9475 65.2652Z" fill="#DDDDDD"/>
<path d="M14.3522 3.75696C12.4796 3.75696 10.9475 5.28907 10.9475 7.16163V15.13C10.9475 17.0026 12.4796 18.5347 14.3522 18.5347C16.2247 18.5347 17.7569 17.0026 17.7569 15.13V7.16163C17.7569 5.28907 16.2247 3.75696 14.3522 3.75696Z" fill="#535454"/>
<path d="M14.3522 15.1299V7.16164C14.3522 5.90825 15.0391 4.80828 16.0545 4.21738C13.7929 2.90113 10.9475 4.55586 10.9475 7.16164V15.13C10.9475 17.7345 13.7914 19.3915 16.0545 18.0743C15.0391 17.4832 14.3522 16.3833 14.3522 15.1299Z" fill="#444443"/>
<path d="M58.3296 0H33.0464C29.3329 0 26.3117 3.02118 26.3117 6.73466V65.2653C26.3117 68.9788 29.3329 72 33.0464 72H58.3296C62.0431 72 65.0642 68.9788 65.0642 65.2653V6.73466C65.0642 3.02118 62.0432 0 58.3296 0Z" fill="#535454"/>
<path d="M30.0425 65.2652V6.73466C30.0425 3.02118 33.0635 0 36.777 0H33.0464C29.3329 0 26.3117 3.02118 26.3117 6.73466V65.2653C26.3117 68.9788 29.3329 72 33.0464 72H36.777C33.0635 71.9999 30.0425 68.9787 30.0425 65.2652Z" fill="#444443"/>
<path d="M61.333 65.2653C61.333 66.924 59.9883 68.2687 58.3296 68.2687H33.0464C31.3877 68.2687 30.0431 66.924 30.0431 65.2653V6.73467C30.0431 5.076 31.3877 3.73134 33.0464 3.73134H36.1974C36.4954 3.73134 36.7813 3.84975 36.9921 4.06052C37.2028 4.27128 37.3213 4.55715 37.3213 4.85522V5.5679C37.3213 6.52415 38.1035 7.30645 39.0598 7.30645H52.3161C53.2723 7.30645 54.0546 6.52415 54.0546 5.5679V4.53712C54.0546 4.32338 54.1396 4.11839 54.2907 3.96725C54.4418 3.81611 54.6468 3.7312 54.8606 3.7312H58.3296C59.9883 3.7312 61.333 5.07586 61.333 6.73453V65.2653Z" fill="#A4D9F4"/>
<path d="M33.626 65.2654V6.73472C33.626 5.16605 34.8291 3.88004 36.3626 3.7449C36.1881 3.71902 36.3737 3.73702 33.0464 3.7314C31.3877 3.7314 30.0431 5.07605 30.0431 6.73472V65.2655C30.0431 66.9242 31.3877 68.2689 33.0464 68.2689H36.6292C34.9707 68.2687 33.626 66.9242 33.626 65.2654Z" fill="#7CC9E8"/>
<path d="M50.0611 4.81793H44.3879C44.0997 4.81793 43.8233 4.70345 43.6195 4.49967C43.4157 4.29589 43.3012 4.01951 43.3012 3.73132C43.3012 3.44314 43.4157 3.16675 43.6195 2.96297C43.8233 2.75919 44.0997 2.64471 44.3879 2.64471H50.0611C50.3493 2.64471 50.6257 2.75919 50.8294 2.96297C51.0332 3.16675 51.1477 3.44314 51.1477 3.73132C51.1477 4.01951 51.0332 4.29589 50.8294 4.49967C50.6257 4.70345 50.3493 4.81793 50.0611 4.81793ZM40.3674 4.63484C39.5895 4.12353 39.778 2.87351 40.7571 2.66595C41.4231 2.52856 42.0567 3.04437 42.0567 3.73076C42.0567 4.23546 41.7084 4.68785 41.1816 4.79712C41.1121 4.81006 40.5886 4.78446 40.3674 4.63484ZM13.7489 8.21051C13.2322 7.85754 13.1255 7.18338 13.4491 6.70371C14.0241 5.83029 15.4382 6.21757 15.4382 7.30643C15.4382 7.83195 15.0604 8.27843 14.5645 8.37124C14.4291 8.39965 13.9995 8.37518 13.7489 8.21051Z" fill="#666666"/>
<path d="M13.7489 12.0499C13.2322 11.6969 13.1255 11.0228 13.4491 10.5431C13.8997 9.84238 15.0076 9.90524 15.3557 10.73C15.5202 11.1188 15.4387 11.5961 15.121 11.9137C14.8619 12.1727 14.1947 12.3428 13.7489 12.0499Z" fill="#F9D698"/>
<path d="M13.7489 15.8875C13.0319 15.4163 13.1296 14.3221 13.9358 13.9809C15.074 13.5361 15.9356 14.9383 15.121 15.7528C14.8385 16.0353 14.2312 16.2172 13.7489 15.8875Z" fill="#666666"/>
<path d="M37.0345 16.0541H34.1269C33.9985 16.0537 33.8755 16.0025 33.7847 15.9118C33.6939 15.821 33.6428 15.6979 33.6423 15.5695V12.6618C33.6428 12.5334 33.6939 12.4104 33.7847 12.3196C33.8755 12.2288 33.9985 12.1777 34.1269 12.1772H37.0345C37.1629 12.1777 37.2859 12.2288 37.3767 12.3196C37.4675 12.4104 37.5187 12.5334 37.5191 12.6618V15.5694C37.5188 15.6978 37.4677 15.8209 37.3768 15.9118C37.286 16.0026 37.1629 16.0538 37.0345 16.0541Z" fill="#70B5E8"/>
<path d="M43.8797 16.0541H40.9721C40.8437 16.0537 40.7207 16.0025 40.6299 15.9118C40.5391 15.821 40.4879 15.6979 40.4875 15.5695V12.6618C40.4879 12.5334 40.5391 12.4104 40.6299 12.3196C40.7207 12.2288 40.8437 12.1777 40.9721 12.1772H43.8797C44.0081 12.1777 44.1311 12.2288 44.2219 12.3196C44.3127 12.4104 44.3639 12.5334 44.3643 12.6618V15.5694C44.3639 15.6978 44.3128 15.8209 44.222 15.9117C44.1312 16.0025 44.0081 16.0537 43.8797 16.0541Z" fill="#EFEFEF"/>
<path d="M50.7247 16.0541H47.8172C47.6888 16.0537 47.5658 16.0025 47.475 15.9118C47.3842 15.821 47.333 15.6979 47.3326 15.5695V12.6618C47.333 12.5334 47.3842 12.4104 47.475 12.3196C47.5658 12.2288 47.6888 12.1777 47.8172 12.1772H50.7247C50.8531 12.1777 50.9762 12.2288 51.067 12.3196C51.1578 12.4104 51.2089 12.5334 51.2093 12.6618V15.5694C51.209 15.6978 51.1578 15.8209 51.067 15.9117C50.9762 16.0025 50.8532 16.0537 50.7247 16.0541Z" fill="#92B620"/>
<path d="M57.5698 16.0541H54.6622C54.5338 16.0537 54.4108 16.0025 54.32 15.9118C54.2292 15.821 54.1781 15.6979 54.1776 15.5695V12.6618C54.1781 12.5334 54.2292 12.4104 54.32 12.3196C54.4108 12.2288 54.5338 12.1777 54.6622 12.1772H57.5698C57.6982 12.1777 57.8212 12.2288 57.912 12.3196C58.0028 12.4104 58.054 12.5334 58.0544 12.6618V15.5694C58.054 15.6978 58.0028 15.8209 57.9121 15.9117C57.8213 16.0025 57.6982 16.0537 57.5698 16.0541Z" fill="#898989"/>
<path d="M37.0345 22.9667H34.1269C33.9985 22.9663 33.8755 22.9151 33.7847 22.8243C33.6939 22.7335 33.6428 22.6105 33.6423 22.4821V19.5746C33.6428 19.4462 33.6939 19.3231 33.7847 19.2324C33.8755 19.1416 33.9985 19.0904 34.1269 19.09H37.0345C37.1629 19.0904 37.2859 19.1416 37.3767 19.2324C37.4675 19.3231 37.5187 19.4462 37.5191 19.5746V22.4821C37.5188 22.6105 37.4676 22.7336 37.3768 22.8244C37.286 22.9152 37.1629 22.9664 37.0345 22.9667Z" fill="#92B620"/>
<path d="M43.8797 22.9667H40.9721C40.8437 22.9663 40.7207 22.9151 40.6299 22.8243C40.5391 22.7335 40.4879 22.6105 40.4875 22.4821V19.5746C40.4879 19.4462 40.5391 19.3231 40.6299 19.2324C40.7207 19.1416 40.8437 19.0904 40.9721 19.09H43.8797C44.0081 19.0904 44.1311 19.1416 44.2219 19.2324C44.3127 19.3231 44.3639 19.4462 44.3643 19.5746V22.4821C44.3639 22.6105 44.3127 22.7335 44.2219 22.8243C44.1311 22.9151 44.0081 22.9663 43.8797 22.9667Z" fill="#898989"/>
<path d="M50.7247 22.9667H47.8172C47.6888 22.9663 47.5658 22.9151 47.475 22.8243C47.3842 22.7335 47.333 22.6105 47.3326 22.4821V19.5746C47.333 19.4462 47.3842 19.3231 47.475 19.2324C47.5658 19.1416 47.6888 19.0904 47.8172 19.09H50.7247C50.8531 19.0904 50.9762 19.1416 51.067 19.2324C51.1578 19.3231 51.2089 19.4462 51.2093 19.5746V22.4821C51.2089 22.6105 51.1578 22.7335 51.067 22.8243C50.9762 22.9151 50.8531 22.9663 50.7247 22.9667Z" fill="#70B5E8"/>
<path d="M57.5698 22.9667H54.6622C54.5338 22.9663 54.4108 22.9151 54.32 22.8243C54.2292 22.7335 54.1781 22.6105 54.1776 22.4821V19.5746C54.1781 19.4462 54.2292 19.3231 54.32 19.2324C54.4108 19.1416 54.5338 19.0904 54.6622 19.09H57.5698C57.6982 19.0904 57.8212 19.1416 57.912 19.2324C58.0028 19.3231 58.054 19.4462 58.0544 19.5746V22.4821C58.054 22.6105 58.0028 22.7335 57.912 22.8243C57.8212 22.9151 57.6982 22.9663 57.5698 22.9667Z" fill="#F94A46"/>
<path d="M37.0345 29.9692H34.1269C33.9985 29.9687 33.8755 29.9176 33.7847 29.8268C33.6939 29.736 33.6428 29.613 33.6423 29.4846V26.577C33.6428 26.4486 33.6939 26.3256 33.7847 26.2348C33.8755 26.144 33.9985 26.0928 34.1269 26.0924H37.0345C37.1629 26.0928 37.2859 26.144 37.3767 26.2348C37.4675 26.3256 37.5187 26.4486 37.5191 26.577V29.4846C37.5188 29.613 37.4676 29.736 37.3768 29.8269C37.286 29.9177 37.1629 29.9688 37.0345 29.9692Z" fill="#DDA36F"/>
<path d="M43.8797 29.9692H40.9721C40.8437 29.9687 40.7207 29.9176 40.6299 29.8268C40.5391 29.736 40.4879 29.613 40.4875 29.4846V26.577C40.4879 26.4486 40.5391 26.3256 40.6299 26.2348C40.7207 26.144 40.8437 26.0928 40.9721 26.0924H43.8797C44.0081 26.0928 44.1311 26.144 44.2219 26.2348C44.3127 26.3256 44.3639 26.4486 44.3643 26.577V29.4846C44.3639 29.613 44.3127 29.736 44.2219 29.8268C44.1311 29.9176 44.0081 29.9687 43.8797 29.9692Z" fill="#F9D698"/>
<path d="M50.7247 29.9692H47.8172C47.6888 29.9687 47.5658 29.9176 47.475 29.8268C47.3842 29.736 47.333 29.613 47.3326 29.4846V26.577C47.333 26.4486 47.3842 26.3256 47.475 26.2348C47.5658 26.144 47.6888 26.0928 47.8172 26.0924H50.7247C50.8531 26.0928 50.9762 26.144 51.067 26.2348C51.1578 26.3256 51.2089 26.4486 51.2093 26.577V29.4846C51.2089 29.613 51.1578 29.736 51.067 29.8268C50.9762 29.9176 50.8531 29.9687 50.7247 29.9692Z" fill="#898989"/>
<path d="M57.5698 29.9692H54.6622C54.5338 29.9687 54.4108 29.9176 54.32 29.8268C54.2292 29.736 54.1781 29.613 54.1776 29.4846V26.577C54.1781 26.4486 54.2292 26.3256 54.32 26.2348C54.4108 26.144 54.5338 26.0928 54.6622 26.0924H57.5698C57.6982 26.0928 57.8212 26.144 57.912 26.2348C58.0028 26.3256 58.054 26.4486 58.0544 26.577V29.4846C58.054 29.613 58.0028 29.736 57.912 29.8268C57.8212 29.9176 57.6982 29.9687 57.5698 29.9692Z" fill="#F9D698"/>
<path d="M37.0345 36.8816H34.1269C33.9985 36.8812 33.8755 36.83 33.7847 36.7392C33.6939 36.6485 33.6428 36.5254 33.6423 36.397V33.4895C33.6428 33.3611 33.6939 33.2381 33.7847 33.1473C33.8755 33.0565 33.9985 33.0053 34.1269 33.0049H37.0345C37.1629 33.0053 37.2859 33.0565 37.3767 33.1473C37.4675 33.2381 37.5187 33.3611 37.5191 33.4895V36.397C37.5188 36.5255 37.4676 36.6485 37.3768 36.7393C37.286 36.8301 37.1629 36.8813 37.0345 36.8816ZM43.8797 36.8816H40.9721C40.8437 36.8812 40.7207 36.83 40.6299 36.7392C40.5391 36.6485 40.488 36.5254 40.4876 36.397V33.4895C40.488 33.3611 40.5391 33.2381 40.6299 33.1473C40.7207 33.0565 40.8437 33.0053 40.9721 33.0049H43.8797C44.0081 33.0053 44.1311 33.0565 44.2219 33.1473C44.3127 33.2381 44.3639 33.3611 44.3643 33.4895V36.397C44.3639 36.5254 44.3127 36.6485 44.2219 36.7392C44.1311 36.83 44.0081 36.8812 43.8797 36.8816Z" fill="#70B5E8"/>
<path d="M50.7247 36.8816H47.8172C47.6888 36.8812 47.5658 36.83 47.475 36.7392C47.3842 36.6485 47.333 36.5254 47.3326 36.397V33.4895C47.333 33.3611 47.3842 33.2381 47.475 33.1473C47.5658 33.0565 47.6888 33.0053 47.8172 33.0049H50.7247C50.8531 33.0053 50.9762 33.0565 51.067 33.1473C51.1578 33.2381 51.2089 33.3611 51.2093 33.4895V36.397C51.2089 36.5254 51.1578 36.6485 51.067 36.7392C50.9762 36.83 50.8531 36.8812 50.7247 36.8816Z" fill="#F94A46"/>
<path d="M37.0345 43.7942H34.1269C33.9985 43.7938 33.8755 43.7426 33.7847 43.6518C33.6939 43.5611 33.6428 43.438 33.6423 43.3096V40.4021C33.6428 40.2737 33.6939 40.1507 33.7847 40.0599C33.8755 39.9691 33.9985 39.9179 34.1269 39.9175H37.0345C37.1629 39.9179 37.2859 39.9691 37.3767 40.0599C37.4675 40.1507 37.5187 40.2737 37.5191 40.4021V43.3096C37.5188 43.4381 37.4676 43.5611 37.3768 43.6519C37.286 43.7427 37.1629 43.7939 37.0345 43.7942Z" fill="#EFEFEF"/>
<path d="M43.8797 43.7942H40.9721C40.8437 43.7938 40.7207 43.7426 40.6299 43.6518C40.5391 43.5611 40.4879 43.438 40.4875 43.3096V40.4021C40.4879 40.2737 40.5391 40.1507 40.6299 40.0599C40.7207 39.9691 40.8437 39.9179 40.9721 39.9175H43.8797C44.0081 39.9179 44.1311 39.9691 44.2219 40.0599C44.3127 40.1507 44.3639 40.2737 44.3643 40.4021V43.3096C44.3639 43.438 44.3127 43.5611 44.2219 43.6518C44.1311 43.7426 44.0081 43.7938 43.8797 43.7942Z" fill="#92B620"/>
<path d="M50.7247 43.7942H47.8172C47.6888 43.7938 47.5658 43.7426 47.475 43.6518C47.3842 43.5611 47.333 43.438 47.3326 43.3096V40.4021C47.333 40.2737 47.3842 40.1507 47.475 40.0599C47.5658 39.9691 47.6888 39.9179 47.8172 39.9175H50.7247C50.8531 39.9179 50.9762 39.9691 51.067 40.0599C51.1578 40.1507 51.2089 40.2737 51.2093 40.4021V43.3096C51.2089 43.438 51.1578 43.5611 51.067 43.6518C50.9762 43.7426 50.8531 43.7938 50.7247 43.7942Z" fill="#898989"/>
<path d="M57.5698 36.8816H54.6622C54.5338 36.8812 54.4108 36.83 54.32 36.7392C54.2292 36.6485 54.1781 36.5254 54.1776 36.397V33.4895C54.1781 33.3611 54.2292 33.2381 54.32 33.1473C54.4108 33.0565 54.5338 33.0053 54.6622 33.0049H57.5698C57.6982 33.0053 57.8212 33.0565 57.912 33.1473C58.0028 33.2381 58.054 33.3611 58.0544 33.4895V36.397C58.054 36.5254 58.0028 36.6485 57.912 36.7392C57.8212 36.83 57.6982 36.8812 57.5698 36.8816Z" fill="#FFB70D"/>
<path d="M37.0347 65.1226H34.1271C33.9987 65.1222 33.8757 65.071 33.7849 64.9802C33.6941 64.8894 33.6429 64.7664 33.6425 64.638V61.7304C33.6429 61.602 33.6941 61.479 33.7849 61.3882C33.8757 61.2974 33.9987 61.2463 34.1271 61.2458H37.0347C37.163 61.2463 37.2861 61.2974 37.3769 61.3882C37.4676 61.479 37.5188 61.602 37.5192 61.7304V64.638C37.5188 64.7664 37.4676 64.8894 37.3769 64.9802C37.2861 65.071 37.163 65.1222 37.0347 65.1226Z" fill="#92B620"/>
<path d="M43.8797 65.1226H40.9721C40.8437 65.1222 40.7207 65.071 40.6299 64.9802C40.5391 64.8894 40.4879 64.7664 40.4875 64.638V61.7304C40.4879 61.602 40.5391 61.479 40.6299 61.3882C40.7207 61.2974 40.8437 61.2463 40.9721 61.2458H43.8797C44.0081 61.2463 44.1311 61.2974 44.2219 61.3882C44.3127 61.479 44.3639 61.602 44.3643 61.7304V64.638C44.3639 64.7664 44.3127 64.8894 44.2219 64.9802C44.1311 65.071 44.0081 65.1222 43.8797 65.1226Z" fill="#70B5E8"/>
<path d="M50.7247 65.1226H47.8172C47.6888 65.1222 47.5658 65.071 47.475 64.9802C47.3842 64.8894 47.333 64.7664 47.3326 64.638V61.7304C47.333 61.602 47.3842 61.479 47.475 61.3882C47.5658 61.2974 47.6888 61.2463 47.8172 61.2458H50.7247C50.8531 61.2463 50.9762 61.2974 51.067 61.3882C51.1578 61.479 51.2089 61.602 51.2093 61.7304V64.638C51.2089 64.7664 51.1578 64.8894 51.067 64.9802C50.9762 65.071 50.8531 65.1222 50.7247 65.1226Z" fill="#92B620"/>
<path d="M57.5698 65.1226H54.6622C54.5338 65.1222 54.4108 65.071 54.32 64.9802C54.2292 64.8894 54.1781 64.7664 54.1776 64.638V61.7304C54.1781 61.602 54.2292 61.479 54.32 61.3882C54.4108 61.2974 54.5338 61.2463 54.6622 61.2458H57.5698C57.6982 61.2463 57.8212 61.2974 57.912 61.3882C58.0028 61.479 58.054 61.602 58.0544 61.7304V64.638C58.054 64.7664 58.0028 64.8894 57.912 64.9802C57.8212 65.071 57.6982 65.1222 57.5698 65.1226Z" fill="#EFEFEF"/>
</svg>
