<svg width="72" height="72" viewBox="0 0 72 72" fill="none" xmlns="http://www.w3.org/2000/svg">
<path d="M33.75 3.375H68.625V68.625H33.75V3.375Z" fill="#D0D8DA"/>
<path d="M68.625 21.375V29.25H33.75V3.375H43.875V9C43.8741 10.6254 44.1936 12.235 44.8152 13.7368C45.4368 15.2386 46.3483 16.6031 47.4976 17.7524C48.6469 18.9017 50.0114 19.8132 51.5132 20.4348C53.015 21.0564 54.6246 21.3759 56.25 21.375H68.625Z" fill="#93999A"/>
<path d="M64.125 37.125C64.125 35.8824 63.1176 34.875 61.875 34.875C60.6324 34.875 59.625 35.8824 59.625 37.125V41.625C59.625 42.8676 60.6324 43.875 61.875 43.875C63.1176 43.875 64.125 42.8676 64.125 41.625V37.125Z" fill="#57B7EB"/>
<path d="M64.125 13.5C64.125 12.2574 63.1176 11.25 61.875 11.25C60.6324 11.25 59.625 12.2574 59.625 13.5V18C59.625 19.2426 60.6324 20.25 61.875 20.25C63.1176 20.25 64.125 19.2426 64.125 18V13.5Z" fill="#57B7EB"/>
<path d="M33.75 29.25H68.625V31.5H33.75V29.25Z" fill="#656B76"/>
<path d="M68.625 46.125V68.625H33.75V31.5H49.5V32.625C49.5 36.2054 50.9223 39.6392 53.4541 42.1709C55.9858 44.7027 59.4196 46.125 63 46.125H68.625Z" fill="#93999A"/>
<path d="M64.125 41.625C64.125 42.2217 63.8879 42.794 63.466 43.216C63.044 43.6379 62.4717 43.875 61.875 43.875C61.2783 43.875 60.706 43.6379 60.284 43.216C59.8621 42.794 59.625 42.2217 59.625 41.625V37.125C59.6268 36.5288 59.8644 35.9575 60.286 35.536C60.7075 35.1144 61.2788 34.8768 61.875 34.875V39.375C61.8768 39.9712 62.1144 40.5424 62.536 40.964C62.9575 41.3856 63.5288 41.6232 64.125 41.625ZM64.125 18C64.125 18.5967 63.8879 19.169 63.466 19.591C63.044 20.0129 62.4717 20.25 61.875 20.25C61.2783 20.25 60.706 20.0129 60.284 19.591C59.8621 19.169 59.625 18.5967 59.625 18V13.5C59.6268 12.9038 59.8644 12.3325 60.286 11.911C60.7075 11.4894 61.2788 11.2518 61.875 11.25V15.75C61.8768 16.3462 62.1144 16.9175 62.536 17.339C62.9575 17.7606 63.5288 17.9982 64.125 18Z" fill="#4891D3"/>
<path d="M3.375 30.375H43.875V68.625H3.375V30.375Z" fill="#E9F1F2"/>
<path d="M43.875 60.75V68.625H3.375V30.375H12.375V33.75C12.3768 40.9103 15.222 47.7768 20.2851 52.8399C25.3482 57.903 32.2147 60.7482 39.375 60.75H43.875Z" fill="#D0D8DA"/>
<path d="M23.625 63C31.0808 63 37.125 56.9558 37.125 49.5C37.125 42.0442 31.0808 36 23.625 36C16.1692 36 10.125 42.0442 10.125 49.5C10.125 56.9558 16.1692 63 23.625 63Z" fill="#F9E109"/>
<path d="M32.3438 59.8162C29.7566 61.9997 26.444 63.1321 23.0616 62.9893C19.6793 62.8464 16.4739 61.4388 14.0801 59.0449C11.6862 56.6511 10.2786 53.4457 10.1357 50.0634C9.99288 46.681 11.1253 43.3684 13.3088 40.7812C14.5406 45.3412 16.9465 49.4985 20.2865 52.8385C23.6265 56.1785 27.7838 58.5844 32.3438 59.8162Z" fill="#FCBC04"/>
<path d="M3.375 21.375H43.875V30.375H3.375V21.375Z" fill="#E9F1F2"/>
<path d="M43.875 25.875V30.375H3.375V21.375H22.8938C23.3559 22.6915 24.2159 23.8318 25.3547 24.6381C26.4935 25.4443 27.8547 25.8765 29.25 25.875H43.875Z" fill="#D0D8DA"/>
<path d="M3.375 21.375H19.125V30.375H3.375V21.375Z" fill="#84D2F4"/>
<path d="M23.625 58.5C28.5956 58.5 32.625 54.4706 32.625 49.5C32.625 44.5294 28.5956 40.5 23.625 40.5C18.6544 40.5 14.625 44.5294 14.625 49.5C14.625 54.4706 18.6544 58.5 23.625 58.5Z" fill="#57B7EB"/>
<path d="M27.1238 57.8025C25.4731 58.4924 23.6547 58.676 21.8995 58.3298C20.1443 57.9836 18.5317 57.1234 17.2666 55.8583C16.0016 54.5933 15.1413 52.9807 14.7952 51.2255C14.449 49.4703 14.6325 47.6518 15.3225 46.0012C17.9084 51.0846 22.0404 55.2166 27.1238 57.8025Z" fill="#4891D3"/>
<path d="M27.1238 57.8025C25.4731 58.4924 23.6547 58.676 21.8995 58.3298C20.1443 57.9836 18.5317 57.1234 17.2666 55.8583C16.0016 54.5933 15.1413 52.9807 14.7952 51.2255C14.449 49.4703 14.6325 47.6518 15.3225 46.0012C17.9084 51.0846 22.0404 55.2166 27.1238 57.8025Z" fill="#4891D3"/>
<path d="M3.375 61.875H12.375V68.625H3.375V61.875Z" fill="#FCBC04"/>
<path d="M19.125 30.375H3.375V21.375H9L19.125 30.375Z" fill="#57B7EB"/>
<path d="M32.5463 50.7375C32.3155 52.3632 31.6466 53.8955 30.6112 55.17L17.955 42.5137C19.2295 41.4784 20.7618 40.8094 22.3875 40.5787L32.5463 50.7375ZM28.0013 57.3525C27.2921 57.7625 26.5264 58.0658 25.7288 58.2525L14.8725 47.3962C15.0592 46.5986 15.3625 45.8329 15.7725 45.1237L28.0013 57.3525Z" fill="#84D2F4"/>
<path d="M15.3338 46.0125C16.4649 48.2489 17.908 50.3133 19.62 52.1437L14.8725 47.3962C14.9837 46.9218 15.1381 46.4587 15.3338 46.0125ZM27.1125 57.7912C26.6663 57.9868 26.2031 58.1412 25.7288 58.2524L20.9813 53.505C22.8116 55.2169 24.876 56.6601 27.1125 57.7912Z" fill="#57B7EB"/>
<path d="M15.3338 46.0125C16.4649 48.2489 17.908 50.3133 19.62 52.1437L14.8725 47.3962C14.9837 46.9218 15.1381 46.4587 15.3338 46.0125ZM27.1125 57.7912C26.6663 57.9868 26.2031 58.1412 25.7288 58.2524L20.9813 53.505C22.8116 55.2169 24.876 56.6601 27.1125 57.7912Z" fill="#57B7EB"/>
<path d="M38.25 27C38.8713 27 39.375 26.4963 39.375 25.875C39.375 25.2537 38.8713 24.75 38.25 24.75C37.6287 24.75 37.125 25.2537 37.125 25.875C37.125 26.4963 37.6287 27 38.25 27Z" fill="#57B7EB"/>
<path d="M33.75 27C34.3713 27 34.875 26.4963 34.875 25.875C34.875 25.2537 34.3713 24.75 33.75 24.75C33.1287 24.75 32.625 25.2537 32.625 25.875C32.625 26.4963 33.1287 27 33.75 27Z" fill="#57B7EB"/>
<path d="M29.25 27C29.8713 27 30.375 26.4963 30.375 25.875C30.375 25.2537 29.8713 24.75 29.25 24.75C28.6287 24.75 28.125 25.2537 28.125 25.875C28.125 26.4963 28.6287 27 29.25 27Z" fill="#57B7EB"/>
<path d="M19.125 24.75H22.5C22.7984 24.75 23.0845 24.8685 23.2955 25.0795C23.5065 25.2905 23.625 25.5766 23.625 25.875C23.625 26.1734 23.5065 26.4595 23.2955 26.6705C23.0845 26.8815 22.7984 27 22.5 27H19.125V24.75Z" fill="#FCBC04"/>
<path d="M39.375 36H36C35.7016 36 35.4155 35.8815 35.2045 35.6705C34.9935 35.4595 34.875 35.1734 34.875 34.875C34.875 34.5766 34.9935 34.2905 35.2045 34.0795C35.4155 33.8685 35.7016 33.75 36 33.75H39.375C39.6734 33.75 39.9595 33.8685 40.1705 34.0795C40.3815 34.2905 40.5 34.5766 40.5 34.875C40.5 35.1734 40.3815 35.4595 40.1705 35.6705C39.9595 35.8815 39.6734 36 39.375 36Z" fill="#57B7EB"/>
<path d="M11.25 36.0001H7.875C7.57663 36.0001 7.29048 35.8815 7.07951 35.6705C6.86853 35.4596 6.75 35.1734 6.75 34.8751C6.75 34.5767 6.86853 34.2905 7.07951 34.0796C7.29048 33.8686 7.57663 33.7501 7.875 33.7501H11.25C11.5484 33.7501 11.8345 33.8686 12.0455 34.0796C12.2565 34.2905 12.375 34.5767 12.375 34.8751C12.375 35.1734 12.2565 35.4596 12.0455 35.6705C11.8345 35.8815 11.5484 36.0001 11.25 36.0001ZM39.375 25.8751C39.375 26.1734 39.2565 26.4596 39.0455 26.6705C38.8345 26.8815 38.5484 27.0001 38.25 27.0001C37.9516 27.0001 37.6655 26.8815 37.4545 26.6705C37.2435 26.4596 37.125 26.1734 37.125 25.8751H39.375ZM34.875 25.8751C34.875 26.1734 34.7565 26.4596 34.5455 26.6705C34.3345 26.8815 34.0484 27.0001 33.75 27.0001C33.4516 27.0001 33.1655 26.8815 32.9545 26.6705C32.7435 26.4596 32.625 26.1734 32.625 25.8751H34.875ZM30.375 25.8751C30.375 26.1734 30.2565 26.4596 30.0455 26.6705C29.8345 26.8815 29.5484 27.0001 29.25 27.0001C28.9516 27.0001 28.6655 26.8815 28.4545 26.6705C28.2435 26.4596 28.125 26.1734 28.125 25.8751C28.1232 25.8409 28.127 25.8067 28.1362 25.7738C28.5036 25.842 28.8764 25.8759 29.25 25.8751H30.375Z" fill="#4891D3"/>
<path d="M43.875 50.625H64.125V68.625H43.875V50.625Z" fill="#E9F1F2"/>
<path d="M64.125 63V68.625H43.875V50.625H48.375V56.25C48.375 58.0402 49.0862 59.7571 50.352 61.023C51.6179 62.2888 53.3348 63 55.125 63H64.125Z" fill="#D0D8DA"/>
<path d="M43.875 55.125H54C54.2984 55.125 54.5845 55.2435 54.7955 55.4545C55.0065 55.6655 55.125 55.9516 55.125 56.25V63C55.125 63.2984 55.0065 63.5845 54.7955 63.7955C54.5845 64.0065 54.2984 64.125 54 64.125H43.875V55.125Z" fill="#84D2F4"/>
<path d="M54 55.125H52.875L43.875 64.125H54C54.2984 64.125 54.5845 64.0065 54.7955 63.7955C55.0065 63.5845 55.125 63.2984 55.125 63V56.25C55.125 55.9516 55.0065 55.6655 54.7955 55.4545C54.5845 55.2435 54.2984 55.125 54 55.125Z" fill="#57B7EB"/>
<path d="M55.125 63C55.125 63.2984 55.0065 63.5845 54.7955 63.7955C54.5845 64.0065 54.2984 64.125 54 64.125H43.875V55.125H48.375V56.25C48.375 58.0402 49.0862 59.7571 50.352 61.023C51.6179 62.2888 53.3348 63 55.125 63Z" fill="#57B7EB"/>
<path d="M55.125 63.0001C55.125 63.2984 55.0065 63.5846 54.7955 63.7956C54.5845 64.0065 54.2984 64.1251 54 64.1251H43.875L48.9712 59.0288C49.5067 60.2122 50.372 61.2162 51.4634 61.9205C52.5548 62.6248 53.8261 62.9997 55.125 63.0001Z" fill="#4891D3"/>
<path d="M59.625 56.25C60.2463 56.25 60.75 55.7463 60.75 55.125C60.75 54.5037 60.2463 54 59.625 54C59.0037 54 58.5 54.5037 58.5 55.125C58.5 55.7463 59.0037 56.25 59.625 56.25Z" fill="#57B7EB"/>
<path d="M59.625 60.75C60.2463 60.75 60.75 60.2463 60.75 59.625C60.75 59.0037 60.2463 58.5 59.625 58.5C59.0037 58.5 58.5 59.0037 58.5 59.625C58.5 60.2463 59.0037 60.75 59.625 60.75Z" fill="#57B7EB"/>
<path d="M21.375 10.125C21.0767 10.125 20.7906 10.0064 20.5796 9.7954L16.0796 5.29541C15.8747 5.08323 15.7613 4.79905 15.7639 4.50408C15.7664 4.20911 15.8847 3.92694 16.0933 3.71836C16.3019 3.50978 16.5841 3.39146 16.879 3.3889C17.174 3.38633 17.4582 3.49973 17.6704 3.70466L21.375 7.40928L25.0796 3.70466C25.1834 3.59721 25.3075 3.5115 25.4448 3.45254C25.5821 3.39358 25.7297 3.36255 25.879 3.36125C26.0284 3.35995 26.1766 3.38841 26.3148 3.44498C26.4531 3.50155 26.5787 3.58508 26.6843 3.69071C26.7899 3.79634 26.8735 3.92195 26.9301 4.06021C26.9866 4.19847 27.0151 4.34661 27.0138 4.49598C27.0125 4.64536 26.9814 4.79298 26.9225 4.93024C26.8635 5.06749 26.7778 5.19163 26.6704 5.29541L22.1704 9.7954C21.9594 10.0064 21.6733 10.125 21.375 10.125Z" fill="#FCBC04"/>
<path d="M5.625 7.875H28.125V21.375H5.625V7.875Z" fill="#F9E109"/>
<path d="M14.625 7.875H28.125V21.375H14.625V7.875Z" fill="#4891D3"/>
<path d="M23.625 10.125H19.125C17.8824 10.125 16.875 11.1324 16.875 12.375V16.875C16.875 18.1176 17.8824 19.125 19.125 19.125H23.625C24.8676 19.125 25.875 18.1176 25.875 16.875V12.375C25.875 11.1324 24.8676 10.125 23.625 10.125Z" fill="#2D72BC"/>
<path d="M14.625 18V21.375H5.625V7.875H9V13.5C9 14.6935 9.47411 15.8381 10.318 16.682C11.1619 17.5259 12.3065 18 13.5 18H14.625Z" fill="#FCBC04"/>
<path d="M12.375 7.875H14.625V19.125H12.375V7.875Z" fill="#FCBC04"/>
<path d="M16.875 7.875H19.125V21.375H16.875V7.875ZM23.625 7.875H25.875V21.375H23.625V7.875Z" fill="#84D2F4"/>
<path d="M14.625 16.875H28.125V19.125H14.625V16.875ZM14.625 10.125H28.125V12.375H14.625V10.125Z" fill="#84D2F4"/>
<path d="M10.125 13.5C10.7463 13.5 11.25 12.9963 11.25 12.375C11.25 11.7537 10.7463 11.25 10.125 11.25C9.50368 11.25 9 11.7537 9 12.375C9 12.9963 9.50368 13.5 10.125 13.5Z" fill="#57B7EB"/>
<path d="M10.125 18C10.7463 18 11.25 17.4963 11.25 16.875C11.25 16.2537 10.7463 15.75 10.125 15.75C9.50368 15.75 9 16.2537 9 16.875C9 17.4963 9.50368 18 10.125 18Z" fill="#57B7EB"/>
<path d="M10.125 18.0001C10.3436 17.9997 10.5574 17.9357 10.7402 17.8159C10.923 17.696 11.0669 17.5254 11.1544 17.3251C10.5515 16.9555 10.0446 16.4485 9.675 15.8457C9.43914 15.9497 9.24615 16.1315 9.12831 16.3608C9.01047 16.59 8.97493 16.8528 9.02764 17.1051C9.08034 17.3574 9.21809 17.584 9.41784 17.7469C9.6176 17.9098 9.86724 17.9992 10.125 18.0001Z" fill="#4891D3"/>
</svg>
