<svg width="32" height="32" viewBox="0 0 32 32" fill="none" xmlns="http://www.w3.org/2000/svg">
<g clip-path="url(#clip0_33_10)">
<path d="M15.2916 1.06655L7.71809 3.18491V3.6813C7.71809 4.21684 6.11699 5.18237 4.67879 5.70887L4.20239 5.88728V17.4445C4.20239 21.2787 6.11084 24.8679 9.71984 27.8184C11.3862 29.1766 13.2343 30.2931 15.2101 31.1352L15.5326 31.2623L15.8554 31.1352C15.9669 31.0897 18.6412 30.0245 21.3427 27.8184C24.9547 24.8679 26.8662 21.2818 26.8662 17.4445V5.88427L26.3868 5.71489C24.9486 5.18523 23.3478 4.21985 23.3478 3.68431V3.18491L15.5328 1L15.2916 1.06655ZM15.5328 2.4282L21.8943 4.20479C22.3617 5.4213 24.3063 6.3623 25.3014 6.77693V17.4443C25.3014 20.9337 23.622 24.0809 20.3085 26.7985C18.8471 27.9829 17.2425 28.9773 15.5328 29.7581C13.8231 28.9773 12.2185 27.9828 10.7571 26.7984C7.44359 24.0808 5.76419 20.9337 5.76419 17.4443V6.77392C6.75914 6.3623 8.70374 5.42115 9.17114 4.20464L15.5328 2.4282Z" fill="#2ECC40"/>
<path d="M19.2396 5.08752H11.8181C10.744 5.08752 9.86511 5.96966 9.86511 7.04782V22.3381C9.86511 23.4163 10.744 24.2984 11.8181 24.2984H19.2396C20.3138 24.2984 21.1926 23.4163 21.1926 22.3381V7.04782C21.1926 5.96966 20.3138 5.08752 19.2396 5.08752ZM15.4703 23.2594C14.943 23.2594 14.4938 22.8282 14.4938 22.2793C14.4938 21.7499 14.9234 21.2992 15.4703 21.2992C16.0171 21.2992 16.4468 21.7303 16.4468 22.2793C16.4468 22.8283 15.9976 23.2594 15.4703 23.2594ZM19.6302 20.5738H11.4275V7.63591H19.6302V20.5738Z" fill="#007EFF"/>
<path fill-rule="evenodd" clip-rule="evenodd" d="M15.7102 19.5681C13.5238 19.5681 11.7528 17.7905 11.7528 15.596C11.7528 13.4015 13.5238 11.6238 15.7102 11.6238C17.8967 11.6238 19.6677 13.4012 19.6677 15.596C19.6677 17.7907 17.8967 19.5681 15.7102 19.5681ZM15.7102 12.2196C13.8502 12.2196 12.3464 13.7289 12.3464 15.596C12.3464 17.463 13.8502 18.9723 15.7102 18.9723C17.5702 18.9723 19.0741 17.4627 19.0741 15.596C19.0741 13.7292 17.5702 12.2196 15.7102 12.2196ZM15.3936 16.8967C15.366 16.9252 15.3329 16.9479 15.2964 16.9633C15.2599 16.9788 15.2206 16.9868 15.181 16.9868C15.1414 16.9868 15.1021 16.9788 15.0656 16.9633C15.0291 16.9479 14.996 16.9252 14.9684 16.8967L13.9096 15.8044C13.8526 15.746 13.8207 15.6676 13.8207 15.5859C13.8207 15.5042 13.8526 15.4258 13.9096 15.3674C13.9374 15.3391 13.9705 15.3166 14.007 15.3013C14.0435 15.286 14.0827 15.2781 14.1223 15.2781C14.1619 15.2781 14.2011 15.286 14.2376 15.3013C14.2741 15.3166 14.3073 15.3391 14.335 15.3674L15.176 16.2413L17.0756 14.2949C17.1033 14.2666 17.1365 14.2442 17.173 14.2288C17.2095 14.2135 17.2487 14.2056 17.2883 14.2056C17.3279 14.2056 17.367 14.2135 17.4036 14.2288C17.4401 14.2442 17.4732 14.2666 17.501 14.2949C17.558 14.3532 17.59 14.4317 17.59 14.5134C17.59 14.5951 17.558 14.6736 17.501 14.7319L15.3936 16.8967Z" fill="#2ECC40"/>
</g>
<defs>
<clipPath id="clip0_33_10">
<rect width="32" height="32" fill="white"/>
</clipPath>
</defs>
</svg>
