<svg width="128" height="128" viewBox="0 0 128 128" fill="none" xmlns="http://www.w3.org/2000/svg">
<path d="M101.132 101.284C121.607 80.809 121.607 47.6129 101.132 27.1382C80.6576 6.66346 47.4615 6.66346 26.9868 27.1382C6.5121 47.6129 6.5121 80.809 26.9868 101.284C47.4615 121.758 80.6576 121.758 101.132 101.284Z" fill="#FE646F"/>
<path fill-rule="evenodd" clip-rule="evenodd" d="M64.0739 80.029C62.9105 80.029 61.9149 79.0363 61.713 77.6709L55.7624 37.5358C55.0143 32.4813 58.2797 27.8477 62.5891 27.8477H65.5558C69.8651 27.8477 73.1306 32.4813 72.3825 37.5358L66.4319 77.6709C66.2328 79.0363 65.2372 80.029 64.0739 80.029ZM69.5181 95.1273C69.5181 92.1293 67.0719 89.683 64.0739 89.683C61.0758 89.683 58.6296 92.1293 58.6296 95.1273C58.6296 98.1253 61.0758 100.572 64.0739 100.572C67.0719 100.572 69.5181 98.1282 69.5181 95.1273Z" fill="#E6E9ED"/>
</svg>
