<svg width="16" height="16" viewBox="0 0 16 16" fill="none" xmlns="http://www.w3.org/2000/svg">
<g clip-path="url(#clip0_746_8587)">
<mask id="mask0_746_8587" style="mask-type:luminance" maskUnits="userSpaceOnUse" x="-3" y="0" width="22" height="16">
<rect x="-2.66675" width="21.3333" height="16" fill="white"/>
</mask>
<g mask="url(#mask0_746_8587)">
<path fill-rule="evenodd" clip-rule="evenodd" d="M-2.66675 0H18.6666V16H-2.66675V0Z" fill="#F7FCFF"/>
<path fill-rule="evenodd" clip-rule="evenodd" d="M-2.66675 9.77768V11.111H18.6666V9.77768H-2.66675Z" fill="#E31D1C"/>
<path fill-rule="evenodd" clip-rule="evenodd" d="M-2.66675 12.2223V13.5557H18.6666V12.2223H-2.66675Z" fill="#E31D1C"/>
<path fill-rule="evenodd" clip-rule="evenodd" d="M-2.66675 4.88901V6.22234H18.6666V4.88901H-2.66675Z" fill="#E31D1C"/>
<path fill-rule="evenodd" clip-rule="evenodd" d="M-2.66675 14.6667V16H18.6666V14.6667H-2.66675Z" fill="#E31D1C"/>
<path fill-rule="evenodd" clip-rule="evenodd" d="M-2.66675 7.33334V8.66668H18.6666V7.33334H-2.66675Z" fill="#E31D1C"/>
<path fill-rule="evenodd" clip-rule="evenodd" d="M-2.66675 0V1.33333H18.6666V0H-2.66675Z" fill="#E31D1C"/>
<path fill-rule="evenodd" clip-rule="evenodd" d="M-2.66675 2.44434V3.77767H18.6666V2.44434H-2.66675Z" fill="#E31D1C"/>
<rect x="-2.66675" width="13.3333" height="8.66667" fill="#2E42A5"/>
<path fill-rule="evenodd" clip-rule="evenodd" d="M-1.51796 1.95914L-2.00188 2.2984L-1.8385 1.69466L-2.26831 1.31205H-1.70692L-1.51863 0.819336L-1.29785 1.31205H-0.819281L-1.19531 1.69466L-1.04973 2.2984L-1.51796 1.95914ZM1.14879 1.95914L0.664872 2.2984L0.828249 1.69466L0.398438 1.31205H0.959829L1.14812 0.819336L1.3689 1.31205H1.84747L1.47144 1.69466L1.61702 2.2984L1.14879 1.95914ZM3.33154 2.2984L3.81546 1.95914L4.28368 2.2984L4.13811 1.69466L4.51413 1.31205H4.03556L3.81478 0.819336L3.6265 1.31205H3.0651L3.49492 1.69466L3.33154 2.2984ZM6.48213 1.95914L5.99821 2.2984L6.16158 1.69466L5.73177 1.31205H6.29316L6.48145 0.819336L6.70223 1.31205H7.1808L6.80478 1.69466L6.95035 2.2984L6.48213 1.95914ZM-2.00179 4.96506L-1.51788 4.6258L-1.04965 4.96506L-1.19522 4.36132L-0.8192 3.97871H-1.29777L-1.51855 3.486L-1.70684 3.97871H-2.26823L-1.83842 4.36132L-2.00179 4.96506ZM1.14879 4.6258L0.664872 4.96506L0.828249 4.36132L0.398438 3.97871H0.959829L1.14812 3.486L1.3689 3.97871H1.84747L1.47144 4.36132L1.61702 4.96506L1.14879 4.6258ZM3.33154 4.96506L3.81546 4.6258L4.28368 4.96506L4.13811 4.36132L4.51413 3.97871H4.03556L3.81478 3.486L3.6265 3.97871H3.0651L3.49492 4.36132L3.33154 4.96506ZM6.48213 4.6258L5.99821 4.96506L6.16158 4.36132L5.73177 3.97871H6.29316L6.48145 3.486L6.70223 3.97871H7.1808L6.80478 4.36132L6.95035 4.96506L6.48213 4.6258ZM-2.00179 7.63173L-1.51788 7.29247L-1.04965 7.63173L-1.19522 7.02799L-0.8192 6.64538H-1.29777L-1.51855 6.15267L-1.70684 6.64538H-2.26823L-1.83842 7.02799L-2.00179 7.63173ZM1.14879 7.29247L0.664872 7.63173L0.828249 7.02799L0.398438 6.64538H0.959829L1.14812 6.15267L1.3689 6.64538H1.84747L1.47144 7.02799L1.61702 7.63173L1.14879 7.29247ZM3.33154 7.63173L3.81546 7.29247L4.28368 7.63173L4.13811 7.02799L4.51413 6.64538H4.03556L3.81478 6.15267L3.6265 6.64538H3.0651L3.49492 7.02799L3.33154 7.63173ZM6.48213 7.29247L5.99821 7.63173L6.16158 7.02799L5.73177 6.64538H6.29316L6.48145 6.15267L6.70223 6.64538H7.1808L6.80478 7.02799L6.95035 7.63173L6.48213 7.29247ZM8.66487 2.2984L9.14879 1.95914L9.61702 2.2984L9.47144 1.69466L9.84747 1.31205H9.3689L9.14812 0.819336L8.95983 1.31205H8.39844L8.82825 1.69466L8.66487 2.2984ZM9.14879 4.6258L8.66487 4.96506L8.82825 4.36132L8.39844 3.97871H8.95983L9.14812 3.486L9.3689 3.97871H9.84747L9.47144 4.36132L9.61702 4.96506L9.14879 4.6258ZM8.66487 7.63173L9.14879 7.29247L9.61702 7.63173L9.47144 7.02799L9.84747 6.64538H9.3689L9.14812 6.15267L8.95983 6.64538H8.39844L8.82825 7.02799L8.66487 7.63173ZM-0.184542 3.29247L-0.668462 3.63173L-0.505085 3.02799L-0.934896 2.64538H-0.373504L-0.185218 2.15267L0.0355628 2.64538H0.514133L0.138109 3.02799L0.283684 3.63173L-0.184542 3.29247ZM1.99821 3.63173L2.48213 3.29247L2.95035 3.63173L2.80478 3.02799L3.1808 2.64538H2.70223L2.48145 2.15267L2.29316 2.64538H1.73177L2.16158 3.02799L1.99821 3.63173ZM5.14879 3.29247L4.66487 3.63173L4.82825 3.02799L4.39844 2.64538H4.95983L5.14812 2.15267L5.3689 2.64538H5.84747L5.47144 3.02799L5.61702 3.63173L5.14879 3.29247ZM-0.668462 6.2984L-0.184542 5.95914L0.283684 6.2984L0.138109 5.69466L0.514133 5.31205H0.0355628L-0.185218 4.81934L-0.373504 5.31205H-0.934896L-0.505085 5.69466L-0.668462 6.2984ZM2.48213 5.95914L1.99821 6.2984L2.16158 5.69466L1.73177 5.31205H2.29316L2.48145 4.81934L2.70223 5.31205H3.1808L2.80478 5.69466L2.95035 6.2984L2.48213 5.95914ZM4.66487 6.2984L5.14879 5.95914L5.61702 6.2984L5.47144 5.69466L5.84747 5.31205H5.3689L5.14812 4.81934L4.95983 5.31205H4.39844L4.82825 5.69466L4.66487 6.2984ZM7.81546 3.29247L7.33154 3.63173L7.49492 3.02799L7.0651 2.64538H7.6265L7.81478 2.15267L8.03556 2.64538H8.51413L8.13811 3.02799L8.28368 3.63173L7.81546 3.29247ZM7.33154 6.2984L7.81546 5.95914L8.28368 6.2984L8.13811 5.69466L8.51413 5.31205H8.03556L7.81478 4.81934L7.6265 5.31205H7.0651L7.49492 5.69466L7.33154 6.2984Z" fill="#F7FCFF"/>
</g>
<rect x="-2.66675" width="21.3333" height="16" fill="url(#paint0_linear_746_8587)" style="mix-blend-mode:overlay"/>
</g>
<defs>
<linearGradient id="paint0_linear_746_8587" x1="7.99992" y1="0" x2="7.99992" y2="16" gradientUnits="userSpaceOnUse">
<stop stop-color="white" stop-opacity="0.7"/>
<stop offset="1" stop-opacity="0.3"/>
</linearGradient>
<clipPath id="clip0_746_8587">
<rect width="16" height="16" rx="8" fill="white"/>
</clipPath>
</defs>
</svg>
